<svg width="300" height="201" viewBox="0 0 300 201" fill="none" xmlns="http://www.w3.org/2000/svg">
<rect y="0.516541" width="299.997" height="200" fill="#E4A400"/>
<path d="M81.2815 50.4341C80.3261 50.981 79.3601 51.4966 78.3835 51.9811C77.407 52.4655 76.4198 52.9188 75.4221 53.3409C76.5172 55.5225 77.6745 57.6204 78.8937 59.6347C80.1128 61.6281 81.4047 63.5899 82.7693 65.52C79.2902 65.5389 75.9796 65.9005 72.8376 66.605C69.7165 67.3303 66.6392 68.4615 63.6058 69.9988C63.7695 69.4562 63.8809 68.8619 63.9399 68.2157C63.999 67.5904 64.0267 66.9236 64.0228 66.2152C64.0161 64.9653 63.8836 63.591 63.6255 62.0923C63.3882 60.5936 63.0359 59.0017 62.5684 57.3167C61.4652 57.4894 60.3617 57.6203 59.258 57.7096C58.1751 57.7988 57.1025 57.8463 56.04 57.8521C54.2067 57.862 52.4247 57.7258 50.6939 57.4435C48.9632 57.1612 47.2837 56.7223 45.6555 56.127C45.291 58.0665 44.9474 60.0267 44.6248 62.0076C44.3022 63.9886 43.9902 66.0215 43.689 68.1065C42.6234 67.529 41.4435 67.0145 40.1494 66.5632C39.0222 66.1734 37.687 65.8161 36.1435 65.4911C34.6002 65.1869 32.8806 65.04 30.9848 65.0502C29.4848 65.0583 27.9022 65.2023 26.2371 65.4822C24.572 65.7828 22.8559 66.2713 21.0887 66.9475C22.7041 65.1679 24.2048 63.3785 25.5909 61.5794C26.9978 59.7592 28.2696 58.0127 29.4064 56.3399C30.5431 54.6462 31.5554 53.0678 32.4433 51.6046C33.3313 50.1415 34.0744 48.877 34.6728 47.8113C34.0642 46.9812 33.4864 46.0885 32.9396 45.1331C32.3927 44.1777 31.8976 43.1491 31.4541 42.0473C32.2899 42.5012 33.1255 42.9237 33.961 43.3151C34.8172 43.6854 35.6629 44.0454 36.4981 44.3951L36.4978 44.3326C37.6103 42.014 38.7751 39.7473 39.9923 37.5323C41.2095 35.3174 42.5208 33.1748 43.9263 31.1047C43.6308 30.398 43.2619 29.5979 42.8196 28.7044C42.3981 27.8108 41.9347 26.8758 41.4294 25.8994C40.9241 24.9229 40.3876 23.9467 39.8198 22.9706C39.2728 21.9943 38.7261 21.0702 38.1797 20.1981C40.2454 20.7703 42.3521 21.2381 44.4999 21.6015C46.6685 21.9439 48.8988 22.161 51.191 22.2528C52.393 21.0796 53.6372 19.9999 54.9236 19.0138C56.2099 18.0276 57.5698 17.1453 59.0031 16.3667C58.5081 17.3069 58.0237 18.2574 57.5497 19.2183C57.0757 20.1792 56.6123 21.1609 56.1594 22.1634C57.3882 22.0942 58.6167 21.973 59.845 21.7997C61.0732 21.6264 62.3012 21.4114 63.529 21.1547C64.4441 24.7124 65.4422 28.1966 66.5231 31.6075C67.6041 35.0183 68.7993 38.3661 70.1088 41.6507C71.168 41.0408 72.1957 40.3894 73.192 39.6965C74.1881 38.9828 75.1945 38.2377 76.2112 37.4614C76.8704 39.937 77.6121 42.2455 78.4362 44.3869C79.2603 46.5283 80.2087 48.5441 81.2815 50.4341ZM58.6652 46.3377C56.787 41.8894 54.5434 37.3078 51.9345 32.5926C51.1551 34.8677 50.4073 37.2051 49.6912 39.6049C48.9957 41.9837 48.3217 44.477 47.6691 47.0847C48.211 47.1234 48.7528 47.1517 49.2946 47.1696C49.8363 47.1875 50.3781 47.195 50.9197 47.1921C52.2322 47.185 53.5235 47.1155 54.7937 46.9836C56.0846 46.8517 57.3751 46.6363 58.6652 46.3377ZM104.431 20.3397C103.93 23.8633 103.553 27.3654 103.301 30.846C103.07 34.3056 102.932 37.7856 102.889 41.2858C106.684 38.0778 110.154 34.5173 113.3 30.6044C116.466 26.6705 119.391 22.415 122.074 17.8379C124.087 20.1396 126.39 22.1688 128.982 23.9257C131.575 25.6825 134.438 27.2087 137.57 28.5043C134.459 31.1878 131.212 33.6637 127.829 35.9321C124.445 38.1796 120.976 40.1359 117.423 41.801C119.714 45.6011 122.4 49.17 125.481 52.5075C128.582 55.8241 131.943 59.0247 135.564 62.1094C129.03 63.5614 123.157 65.7911 117.944 68.7985C116.274 64.4533 114.211 60.4332 111.754 56.7381C109.317 53.0221 106.371 49.6421 102.917 46.5983C102.934 49.7024 103.013 52.7749 103.155 55.8159C103.296 58.8568 103.521 61.9286 103.83 65.0311C102.143 65.1444 100.508 65.2991 98.9257 65.4951C97.3435 65.712 95.7616 65.981 94.18 66.3021C92.6193 66.6439 91.0485 67.0378 89.4676 67.4838C87.8866 67.9299 86.2643 68.4283 84.6006 68.9789C87.9164 58.0233 89.5438 46.9206 89.483 35.6708C89.4529 30.1084 89.0162 24.4961 88.1731 18.8339C90.1349 19.4691 92.0229 19.9485 93.8372 20.272C95.6722 20.5746 97.5584 20.7206 99.4959 20.7101C100.288 20.7059 101.09 20.6807 101.902 20.6346C102.714 20.5886 103.557 20.4903 104.431 20.3397ZM63.895 117.67C63.7156 119.171 63.4182 120.516 63.0027 121.706C62.5872 122.88 62.0851 123.93 61.4963 124.855C61.499 125.355 61.5018 125.878 61.5048 126.425C61.5234 126.972 61.542 127.519 61.5606 128.065C61.5791 128.597 61.6053 129.112 61.6392 129.612C61.6732 130.112 61.7147 130.557 61.7637 130.947L56.354 131.773L55.3833 129.974C53.9647 130.575 52.5137 130.989 51.0306 131.216C49.5631 131.458 48.1653 131.583 46.8372 131.59C44.0404 131.606 41.4758 131.221 39.1434 130.437C36.811 129.652 34.7498 128.468 32.96 126.884C31.1702 125.3 29.6672 123.316 28.4512 120.932C27.2507 118.532 26.384 115.74 25.8511 112.555C26.2112 112.678 26.5946 112.793 27.0014 112.901C27.4083 113.008 27.815 113.099 28.2217 113.175C28.4858 110.002 29.2988 107.216 30.6609 104.818C32.0229 102.405 33.7932 100.387 35.972 98.7659C38.1663 97.129 40.6987 95.8966 43.5693 95.0685C46.4554 94.2248 49.5546 93.7939 52.8671 93.776C54.3827 93.7678 56.0003 93.8372 57.7199 93.9841C59.4551 94.131 61.3158 94.3787 63.3021 94.7274C62.8567 96.1517 62.5207 97.5832 62.2941 99.0219C62.083 100.445 61.9813 101.867 61.989 103.289C61.9971 104.789 62.1223 106.273 62.3647 107.74C61.4391 107.058 60.5141 106.493 59.5898 106.044C58.6654 105.581 57.7572 105.218 56.8652 104.958C55.9886 104.681 55.1282 104.49 54.2839 104.386C53.4395 104.265 52.6345 104.207 51.8689 104.211C50.4158 104.219 48.9325 104.422 47.419 104.821C45.9055 105.22 44.4711 105.806 43.1159 106.579C41.7762 107.336 40.5704 108.272 39.4982 109.388C38.4417 110.487 37.636 111.749 37.0812 113.174C37.7213 113.077 38.3301 112.964 38.9075 112.836C39.4849 112.692 40.0621 112.525 40.6392 112.335C40.5492 113.023 40.5058 113.663 40.509 114.257C40.5174 115.82 40.7904 117.178 41.3279 118.331C41.8654 119.484 42.605 120.441 43.5466 121.202C44.4881 121.947 45.5927 122.503 46.8604 122.871C48.1436 123.239 49.5274 123.419 51.0118 123.411C51.2618 123.41 51.5118 123.409 51.7618 123.407C52.0118 123.406 52.2617 123.389 52.5115 123.356C51.8771 121.61 51.3519 119.855 50.9361 118.091C50.5203 116.328 50.1585 114.439 49.8508 112.425C50.6015 112.562 51.3365 112.667 52.0556 112.742C52.7748 112.816 53.4859 112.851 54.1891 112.847C55.7047 112.839 57.1803 112.667 58.616 112.331C60.0517 111.995 61.5257 111.511 63.0379 110.877C62.3038 113.819 61.8272 116.697 61.608 119.51C61.9972 119.243 62.3707 118.959 62.7284 118.661C63.1017 118.346 63.4906 118.016 63.895 117.67ZM93.6401 122.46C93.1492 122.697 92.6641 122.928 92.1848 123.154C91.7055 123.367 91.2203 123.575 90.7292 123.777C91.8178 125.716 93.0172 127.544 94.3273 129.259C92.5109 129.269 90.7775 129.454 89.1271 129.815C87.4767 130.187 85.804 130.753 84.1088 131.512C84.2361 131.206 84.3105 130.89 84.3322 130.561C84.3657 130.245 84.3815 129.917 84.3796 129.577C84.3766 129.014 84.3205 128.399 84.2114 127.732C84.1023 127.053 83.9402 126.345 83.7253 125.608C83.2335 125.681 82.7416 125.736 82.2496 125.774C81.7576 125.8 81.2772 125.814 80.8084 125.817C79.9764 125.821 79.1559 125.779 78.3468 125.689C77.5493 125.588 76.7809 125.422 76.0413 125.192C75.8468 126.06 75.67 126.952 75.5109 127.867C75.3517 128.77 75.1927 129.703 75.0338 130.664C74.4345 130.363 73.7768 130.091 73.0606 129.849C72.4502 129.653 71.7402 129.469 70.9306 129.298C70.1328 129.126 69.2886 129.043 68.398 129.048C67.6363 129.052 66.8281 129.121 65.9733 129.254C65.1185 129.388 64.1763 129.604 63.1467 129.903C63.9393 129.113 64.6791 128.312 65.3661 127.5C66.0648 126.676 66.6992 125.887 67.2694 125.134C67.8512 124.369 68.363 123.657 68.8047 122.999C69.2581 122.328 69.6359 121.746 69.9379 121.252C69.5958 120.844 69.277 120.406 68.9815 119.939C68.6978 119.472 68.4255 118.97 68.1648 118.432C68.6348 118.664 69.0989 118.878 69.557 119.075C70.015 119.26 70.4671 119.433 70.9133 119.595C71.4472 118.643 72.0104 117.684 72.6029 116.72C73.1953 115.756 73.8289 114.815 74.5036 113.898C74.3612 113.558 74.1774 113.173 73.9524 112.74C73.7392 112.308 73.5024 111.864 73.2421 111.408C72.9935 110.941 72.7273 110.479 72.4436 110.024C72.1599 109.568 71.8822 109.148 71.6106 108.763C72.7372 109.061 73.8635 109.295 74.9894 109.465C76.1271 109.635 77.2585 109.746 78.3838 109.798C79.0255 109.268 79.6967 108.783 80.3975 108.346C81.0982 107.897 81.8344 107.5 82.6059 107.156C82.3621 107.568 82.1241 107.991 81.8921 108.426C81.6601 108.861 81.4339 109.301 81.2137 109.748C81.7993 109.686 82.3907 109.618 82.988 109.545C83.5852 109.46 84.2057 109.351 84.8496 109.218C85.2917 110.798 85.7746 112.337 86.2984 113.834C86.8221 115.331 87.3867 116.804 87.9922 118.254C88.5063 117.959 89.0144 117.657 89.5167 117.35C90.0306 117.03 90.5385 116.688 91.0404 116.322C91.4104 117.55 91.809 118.679 92.2365 119.708C92.6639 120.737 93.1318 121.654 93.6401 122.46ZM81.8528 120.661C81.4377 119.749 80.9816 118.831 80.4844 117.908C79.9989 116.973 79.4723 116.033 78.9047 115.087C78.2233 116.942 77.6011 118.914 77.0382 121.003C77.2493 121.025 77.4544 121.036 77.6536 121.035C77.8645 121.034 78.0755 121.033 78.2864 121.031C78.8841 121.028 79.4757 121.002 80.0614 120.952C80.6587 120.89 81.2559 120.793 81.8528 120.661ZM127.95 108.845C127.509 109.761 127.139 110.642 126.839 111.487C126.539 112.333 126.297 113.143 126.114 113.917C125.931 114.692 125.8 115.436 125.722 116.152C125.655 116.867 125.624 117.547 125.627 118.191C125.634 119.457 125.775 120.616 126.05 121.67C126.337 122.711 126.7 123.664 127.138 124.529C127.576 125.382 128.067 126.153 128.61 126.841C129.164 127.53 129.712 128.142 130.254 128.678C129.786 128.681 129.352 128.66 128.953 128.615C128.566 128.57 128.138 128.549 127.67 128.551C127.166 128.554 126.674 128.592 126.194 128.665C125.714 128.726 125.222 128.817 124.719 128.937C124.227 129.068 123.712 129.229 123.174 129.42C122.636 129.61 122.057 129.836 121.438 130.097C120.891 128.705 120.45 127.313 120.114 125.92C119.779 124.528 119.537 123.134 119.389 121.741C118.809 122.904 118.323 124.12 117.932 125.387C117.54 126.655 117.26 128.016 117.092 129.47C116.952 129.471 116.653 129.478 116.196 129.492C115.751 129.507 115.2 129.539 114.544 129.589C113.9 129.651 113.191 129.743 112.419 129.864C111.646 129.998 110.873 130.178 110.101 130.404C109.929 128.835 109.645 127.36 109.251 125.979C108.857 124.587 108.358 123.271 107.753 122.032C107.62 123.381 107.387 124.735 107.054 126.097C106.722 127.458 106.296 128.819 105.776 130.182C103.356 129.187 100.945 128.696 98.5431 128.709C98.1798 128.711 97.7464 128.737 97.2427 128.786C96.739 128.824 96.2353 128.862 95.7316 128.9C97.5618 127.121 98.9456 125.133 99.883 122.936C100.832 120.728 101.299 118.276 101.285 115.581C101.283 115.276 101.269 114.954 101.244 114.614C101.219 114.263 101.188 113.9 101.15 113.525C100.267 112.698 99.3251 111.888 98.3248 111.097C97.3361 110.305 96.2887 109.496 95.1827 108.67C95.6754 108.761 96.3323 108.887 97.1535 109.046C97.9863 109.194 98.977 109.265 100.125 109.259C101.121 109.253 102.222 109.148 103.428 108.942C104.634 108.736 105.91 108.349 107.254 107.779C108.033 108.841 108.808 110.067 109.577 111.458C110.24 112.649 110.933 114.081 111.657 115.753C112.392 117.413 113.059 119.279 113.656 121.35L114.87 118.285C115.263 117.286 115.638 116.323 115.997 115.396C116.367 114.468 116.707 113.558 117.019 112.666C117.342 111.761 117.63 110.857 117.883 109.954C118.148 109.038 118.383 108.088 118.589 107.102C119.435 107.543 120.298 107.884 121.178 108.125C122.058 108.367 122.909 108.544 123.73 108.656C124.562 108.757 125.342 108.818 126.069 108.837C126.795 108.845 127.422 108.847 127.95 108.845ZM142.401 128.753C141.194 128.76 140.11 128.771 139.15 128.788C138.189 128.793 137.292 128.822 136.461 128.873C135.641 128.936 134.856 129.022 134.106 129.132C133.369 129.253 132.608 129.421 131.824 129.636C132.539 127.418 133.072 125.229 133.423 123.071C133.787 120.901 133.962 118.732 133.951 116.564C133.94 114.607 133.771 112.628 133.444 110.625C132.717 110.524 131.996 110.44 131.28 110.373L131.21 110.374L133.299 109.835L132.92 108.062C133.613 108.257 134.293 108.435 134.962 108.596C135.631 108.756 136.311 108.899 137.004 109.024C138.97 108.65 140.949 108.364 142.94 108.166C144.943 107.956 146.97 107.845 149.021 107.834C149.923 107.829 150.826 107.848 151.728 107.89C152.642 107.932 153.621 107.985 154.665 108.05C154.423 108.93 154.24 109.81 154.116 110.689C153.992 111.569 153.933 112.472 153.938 113.397C153.939 113.679 153.947 114.007 153.961 114.382C153.986 114.745 154.029 115.143 154.09 115.576C152.082 114.825 150.074 114.157 148.067 113.57C146.06 112.971 144.018 112.455 141.942 112.021C141.852 112.818 141.78 113.61 141.726 114.395C141.683 115.181 141.647 115.972 141.616 116.769C142.611 116.576 143.624 116.436 144.655 116.348C145.697 116.249 146.781 116.184 147.906 116.155C147.802 116.589 147.717 117.023 147.649 117.457C147.593 117.891 147.566 118.336 147.568 118.793C147.572 119.473 147.682 120.24 147.897 121.094C146.84 120.666 145.795 120.274 144.762 119.916C143.729 119.546 142.684 119.218 141.628 118.931C141.633 119.88 141.656 120.87 141.696 121.901C141.737 122.921 141.807 123.946 141.906 124.976C143.909 124.696 145.922 124.328 147.947 123.871C149.972 123.403 152.032 122.836 154.126 122.168C153.989 122.93 153.882 123.675 153.804 124.402C153.726 125.117 153.688 125.803 153.692 126.459C153.699 127.702 153.846 128.972 154.134 130.272C152.14 129.837 150.169 129.467 148.222 129.161C146.287 128.855 144.323 128.608 142.329 128.419L142.401 128.753ZM67.9941 182.188C67.2776 182.598 66.5531 182.985 65.8207 183.348C65.0882 183.711 64.3479 184.051 63.5996 184.368C64.4209 186.004 65.2888 187.577 66.2033 189.088C67.1176 190.583 68.0865 192.054 69.11 193.502C66.5007 193.516 64.0177 193.787 61.6612 194.316C59.3203 194.86 57.0124 195.708 54.7374 196.861C54.8602 196.454 54.9437 196.008 54.9879 195.524C55.0323 195.055 55.053 194.555 55.0501 194.023C55.0451 193.086 54.9457 192.055 54.7521 190.931C54.5742 189.807 54.3099 188.613 53.9593 187.35C53.1319 187.479 52.3043 187.577 51.4765 187.644C50.6644 187.711 49.8598 187.747 49.063 187.751C47.688 187.759 46.3515 187.656 45.0535 187.445C43.7554 187.233 42.4958 186.904 41.2746 186.457C41.0012 187.912 40.7436 189.382 40.5016 190.868C40.2596 192.353 40.0257 193.878 39.7998 195.442C39.0005 195.009 38.1156 194.623 37.145 194.284C36.2997 193.992 35.2982 193.724 34.1406 193.48C32.9831 193.252 31.6935 193.142 30.2716 193.15C29.1466 193.156 27.9597 193.264 26.7108 193.474C25.462 193.699 24.1749 194.066 22.8495 194.573C24.0611 193.238 25.1866 191.896 26.2262 190.547C27.2813 189.181 28.2352 187.872 29.0878 186.617C29.9403 185.347 30.6996 184.163 31.3655 183.066C32.0314 181.968 32.5888 181.02 33.0376 180.22C32.5811 179.598 32.1478 178.928 31.7377 178.212C31.3276 177.495 30.9562 176.724 30.6236 175.898C31.2504 176.238 31.8772 176.555 32.5038 176.848C33.1459 177.126 33.7802 177.396 34.4066 177.658L34.4063 177.611C35.2407 175.873 36.1143 174.172 37.0272 172.511C37.9401 170.85 38.9236 169.243 39.9778 167.691C39.7561 167.161 39.4794 166.56 39.1477 165.89C38.8316 165.22 38.484 164.519 38.105 163.787C37.7261 163.054 37.3237 162.322 36.8978 161.59C36.4876 160.858 36.0776 160.165 35.6678 159.511C37.217 159.94 38.7971 160.291 40.4079 160.563C42.0344 160.82 43.7071 160.983 45.4263 161.052C46.3278 160.172 47.2609 159.362 48.2257 158.622C49.1905 157.883 50.2103 157.221 51.2853 156.637C50.9141 157.342 50.5508 158.055 50.1953 158.776C49.8398 159.496 49.4922 160.233 49.1525 160.985C50.0742 160.933 50.9955 160.842 51.9167 160.712C52.8379 160.582 53.7589 160.421 54.6798 160.228C55.3661 162.896 56.1146 165.509 56.9254 168.068C57.7361 170.626 58.6325 173.137 59.6146 175.6C60.409 175.143 61.1798 174.654 61.927 174.134C62.6741 173.599 63.4289 173.04 64.1914 172.458C64.6858 174.315 65.2421 176.046 65.8602 177.652C66.4782 179.258 67.1895 180.77 67.9941 182.188ZM51.0319 179.115C49.6232 175.779 47.9405 172.343 45.9839 168.807C45.3994 170.513 44.8385 172.266 44.3014 174.066C43.7798 175.85 43.2743 177.72 42.7848 179.676C43.1912 179.705 43.5976 179.726 44.0039 179.739C44.4103 179.753 44.8166 179.758 45.2228 179.756C46.2072 179.751 47.1756 179.699 48.1282 179.6C49.0965 179.501 50.0644 179.339 51.0319 179.115ZM80.9938 173.064C80.5529 176.055 80.3054 179.045 80.2513 182.033C81.9897 180.606 83.5983 179.021 85.0772 177.279C86.5677 175.525 87.9754 173.624 89.3003 171.578C90.4317 172.767 91.656 173.78 92.973 174.617C94.2901 175.453 95.6943 176.155 97.1857 176.721L97.256 176.721C95.7389 177.901 94.1452 178.999 92.4749 180.016C90.8045 181.021 89.0983 181.898 87.3562 182.645C88.5378 184.432 89.8826 186.077 91.3908 187.581C92.9107 189.084 94.5356 190.505 96.2655 191.843L96.1073 191.844C93.005 192.447 89.9874 193.524 87.0543 195.075C86.2469 193.134 85.2822 191.352 84.1601 189.729C83.0498 188.106 81.7411 186.648 80.2341 185.356C80.2646 186.656 80.3185 187.957 80.3958 189.257C80.4732 190.558 80.5798 191.858 80.7157 193.158C79.8254 193.21 78.9586 193.285 78.1154 193.383C77.2722 193.493 76.4292 193.627 75.5862 193.783C74.7551 193.952 73.9182 194.144 73.0757 194.36C72.2331 194.575 71.3613 194.814 70.4604 195.077C72.1212 190.146 72.9377 185.102 72.9098 179.946C72.9031 178.716 72.8378 177.468 72.7137 176.203C72.6014 174.926 72.436 173.609 72.2177 172.251C73.3446 172.584 74.3947 172.831 75.3683 172.989C76.3535 173.148 77.309 173.225 78.2348 173.22C78.6098 173.218 79.0082 173.21 79.43 173.196C79.8635 173.17 80.3847 173.126 80.9938 173.064ZM125.556 186.288C125.065 186.525 124.58 186.757 124.101 186.982C123.622 187.195 123.136 187.403 122.645 187.605C123.734 189.544 124.933 191.372 126.243 193.087C124.427 193.097 122.694 193.282 121.043 193.643C119.393 194.015 117.72 194.581 116.025 195.34C116.152 195.035 116.227 194.718 116.248 194.39C116.282 194.073 116.298 193.745 116.296 193.405C116.293 192.842 116.237 192.228 116.128 191.56C116.018 190.881 115.856 190.173 115.641 189.436C115.15 189.509 114.658 189.564 114.166 189.602C113.674 189.628 113.193 189.642 112.725 189.645C111.893 189.649 111.072 189.607 110.263 189.518C109.465 189.416 108.697 189.251 107.957 189.02C107.763 189.889 107.586 190.78 107.427 191.695C107.268 192.598 107.109 193.531 106.95 194.493C106.351 194.191 105.693 193.919 104.977 193.677C104.366 193.481 103.656 193.298 102.847 193.126C102.049 192.955 101.205 192.871 100.314 192.876C99.5524 192.88 98.7442 192.949 97.8894 193.083C97.0347 193.216 96.0925 193.432 95.0628 193.731C95.8554 192.941 96.5952 192.14 97.2823 191.328C97.9809 190.504 98.6154 189.715 99.1855 188.962C99.7673 188.197 100.279 187.486 100.721 186.827C101.174 186.157 101.552 185.574 101.854 185.081C101.512 184.672 101.193 184.235 100.898 183.767C100.614 183.3 100.342 182.798 100.081 182.26C100.551 182.492 101.015 182.706 101.473 182.903C101.931 183.088 102.383 183.261 102.829 183.423C103.363 182.471 103.927 181.513 104.519 180.549C105.111 179.584 105.745 178.643 106.42 177.726C106.277 177.387 106.094 177.001 105.869 176.569C105.655 176.136 105.418 175.692 105.158 175.236C104.91 174.769 104.643 174.308 104.36 173.852C104.076 173.397 103.798 172.976 103.527 172.591C104.653 172.89 105.78 173.124 106.906 173.293C108.043 173.463 109.175 173.574 110.3 173.627C110.942 173.096 111.613 172.612 112.314 172.174C113.014 171.725 113.75 171.329 114.522 170.985C114.278 171.396 114.04 171.819 113.808 172.254C113.576 172.689 113.35 173.13 113.13 173.576C113.715 173.514 114.307 173.447 114.904 173.373C115.501 173.288 116.122 173.179 116.766 173.047C117.208 174.626 117.691 176.165 118.214 177.662C118.738 179.159 119.303 180.633 119.908 182.083C120.422 181.787 120.931 181.485 121.433 181.178C121.947 180.859 122.455 180.516 122.957 180.15C123.326 181.378 123.725 182.507 124.153 183.536C124.58 184.565 125.048 185.483 125.556 186.288ZM113.769 184.489C113.354 183.577 112.898 182.66 112.401 181.736C111.915 180.802 111.388 179.861 110.821 178.915C110.139 180.77 109.517 182.742 108.954 184.831C109.165 184.854 109.371 184.864 109.57 184.863C109.781 184.862 109.992 184.861 110.203 184.86C110.8 184.856 111.392 184.83 111.978 184.78C112.575 184.718 113.172 184.621 113.769 184.489ZM154.163 181.124C154.188 181.323 154.207 181.522 154.219 181.721C154.232 181.92 154.239 182.119 154.24 182.319C154.246 183.362 154.07 184.37 153.712 185.345C153.365 186.32 152.872 187.236 152.232 188.095C151.592 188.954 150.829 189.743 149.942 190.463C149.056 191.171 148.086 191.786 147.034 192.307C145.982 192.817 144.86 193.215 143.666 193.503C142.472 193.791 141.254 193.938 140.012 193.945C139.098 193.95 138.172 193.861 137.233 193.678C136.306 193.496 135.402 193.155 134.52 192.656C133.607 192.766 132.641 192.953 131.623 193.217C130.605 193.48 129.534 193.785 128.411 194.13C129.323 191.641 130.042 189.141 130.568 186.63C131.093 184.108 131.367 181.558 131.388 178.979C130.628 179.323 129.874 179.749 129.127 180.257C129.184 179.847 129.228 179.489 129.262 179.184C129.295 178.879 129.312 178.627 129.311 178.428C129.298 176.073 128.601 174.037 127.221 172.322C127.619 172.203 128.081 172.095 128.608 171.998C129.146 171.902 129.72 171.811 130.329 171.725C130.938 171.64 131.559 171.566 132.191 171.504C132.835 171.442 133.456 171.392 134.054 171.353C134.663 171.303 135.231 171.271 135.758 171.256C136.285 171.23 136.737 171.216 137.112 171.214C139.467 171.201 141.607 171.442 143.532 171.935C145.468 172.428 147.124 173.111 148.5 173.982C149.875 174.842 150.936 175.856 151.68 177.024C152.437 178.18 152.818 179.42 152.825 180.744C152.826 180.885 152.821 181.02 152.81 181.149C152.799 181.278 152.794 181.407 152.795 181.535C153.251 181.428 153.707 181.29 154.163 181.124ZM146.383 182.326C146.109 181.472 145.677 180.759 145.088 180.188C144.499 179.606 143.84 179.135 143.112 178.775C142.383 178.416 141.626 178.151 140.84 177.979C140.065 177.796 139.35 177.676 138.693 177.621C138.635 179.895 138.612 182.163 138.624 184.425C138.63 185.432 138.641 186.446 138.658 187.466C138.687 188.473 138.722 189.487 138.763 190.506C139.675 190.208 140.529 189.817 141.323 189.332C142.117 188.847 142.788 188.264 143.335 187.581C143.894 186.898 144.306 186.122 144.57 185.254C144.835 184.385 144.9 183.424 144.766 182.37C145 182.369 145.252 182.367 145.522 182.366C145.803 182.364 146.09 182.351 146.383 182.326ZM166.864 192.622C165.657 192.628 164.574 192.64 163.613 192.657C162.652 192.662 161.755 192.69 160.924 192.742C160.104 192.805 159.319 192.891 158.57 193C157.832 193.122 157.071 193.29 156.287 193.505C157.002 191.286 157.535 189.098 157.886 186.94C158.25 184.77 158.425 182.601 158.414 180.433C158.403 178.476 158.234 176.496 157.907 174.494C157.18 174.392 156.459 174.308 155.743 174.242L155.673 174.242L157.762 173.704L157.383 171.93C158.076 172.126 158.756 172.304 159.425 172.464C160.094 172.625 160.775 172.768 161.467 172.893C163.433 172.519 165.412 172.233 167.404 172.034C169.406 171.824 171.433 171.714 173.484 171.703C174.386 171.698 175.289 171.716 176.191 171.758C177.106 171.8 178.084 171.854 179.128 171.918C178.886 172.798 178.704 173.678 178.579 174.558C178.455 175.438 178.396 176.34 178.401 177.266C178.402 177.547 178.41 177.875 178.424 178.25C178.449 178.613 178.492 179.012 178.553 179.445C176.545 178.694 174.538 178.025 172.53 177.438C170.523 176.84 168.481 176.324 166.405 175.889C166.315 176.687 166.243 177.478 166.189 178.264C166.147 179.049 166.11 179.84 166.079 180.637C167.074 180.445 168.087 180.304 169.118 180.217C170.16 180.117 171.244 180.053 172.369 180.023C172.266 180.457 172.18 180.891 172.112 181.325C172.056 181.759 172.029 182.205 172.031 182.662C172.035 183.342 172.145 184.109 172.36 184.963C171.303 184.535 170.258 184.142 169.225 183.784C168.192 183.415 167.147 183.087 166.091 182.799C166.096 183.749 166.119 184.739 166.159 185.77C166.2 186.789 166.27 187.814 166.369 188.845C168.372 188.565 170.386 188.196 172.41 187.74C174.435 187.272 176.495 186.704 178.589 186.037C178.452 186.799 178.345 187.544 178.267 188.271C178.189 188.986 178.151 189.672 178.155 190.328C178.162 191.57 178.309 192.841 178.597 194.14C176.603 193.706 174.632 193.335 172.685 193.03C170.75 192.724 168.786 192.476 166.792 192.288L166.864 192.622ZM213.478 172.383C213.038 173.299 212.668 174.18 212.368 175.026C212.067 175.871 211.826 176.681 211.642 177.455C211.459 178.23 211.328 178.975 211.25 179.69C211.184 180.405 211.152 181.085 211.156 181.729C211.163 182.995 211.304 184.154 211.579 185.208C211.866 186.249 212.228 187.202 212.667 188.067C213.105 188.92 213.595 189.691 214.138 190.379C214.693 191.068 215.241 191.68 215.783 192.216C215.314 192.219 214.88 192.198 214.482 192.153C214.095 192.108 213.667 192.087 213.198 192.09C212.694 192.092 212.202 192.13 211.722 192.203C211.242 192.264 210.75 192.355 210.247 192.475C209.756 192.606 209.241 192.767 208.703 192.958C208.165 193.148 207.586 193.374 206.966 193.635C206.42 192.244 205.979 190.851 205.643 189.459C205.307 188.066 205.065 186.673 204.917 185.279C204.337 186.442 203.852 187.658 203.46 188.925C203.069 190.193 202.789 191.554 202.621 193.008C202.48 193.009 202.182 193.016 201.725 193.031C201.279 193.045 200.729 193.077 200.073 193.127C199.429 193.19 198.72 193.281 197.947 193.403C197.175 193.536 196.402 193.716 195.63 193.943C195.457 192.373 195.174 190.898 194.78 189.517C194.385 188.125 193.886 186.809 193.282 185.57C193.148 186.919 192.916 188.274 192.583 189.635C192.251 190.996 191.824 192.358 191.304 193.72C188.885 192.725 186.474 192.234 184.072 192.247C183.708 192.249 183.275 192.275 182.771 192.325C182.268 192.362 181.764 192.4 181.26 192.438C183.09 190.659 184.474 188.671 185.412 186.474C186.361 184.266 186.828 181.814 186.813 179.119C186.812 178.814 186.798 178.492 186.773 178.152C186.747 177.801 186.716 177.438 186.679 177.063C185.796 176.236 184.854 175.426 183.853 174.635C182.865 173.843 181.817 173.035 180.711 172.208C181.204 172.3 181.861 172.425 182.682 172.585C183.515 172.732 184.506 172.803 185.654 172.797C186.65 172.792 187.751 172.686 188.957 172.48C190.163 172.275 191.438 171.887 192.783 171.317C193.562 172.379 194.336 173.605 195.105 174.996C195.768 176.188 196.461 177.619 197.185 179.291C197.921 180.951 198.587 182.817 199.184 184.888L200.398 181.823C200.791 180.825 201.167 179.862 201.525 178.934C201.895 178.006 202.236 177.096 202.548 176.204C202.871 175.3 203.159 174.396 203.412 173.492C203.677 172.576 203.912 171.626 204.117 170.64C204.963 171.081 205.827 171.422 206.707 171.664C207.587 171.905 208.438 172.082 209.259 172.195C210.091 172.296 210.871 172.356 211.597 172.375C212.324 172.383 212.951 172.386 213.478 172.383ZM246.98 171.885C244.588 173.761 242.331 175.736 240.209 177.81C238.099 179.884 236.143 182.122 234.339 184.522L234.41 184.522C234.308 185.19 234.288 185.882 234.35 186.596C234.413 187.311 234.534 188.031 234.714 188.756C234.893 189.47 235.114 190.178 235.376 190.88C235.649 191.57 235.94 192.23 236.248 192.861C234.863 192.494 233.537 192.214 232.27 192.022C231.015 191.829 229.808 191.736 228.648 191.742C227.874 191.747 227.06 191.798 226.205 191.896C225.362 191.983 224.46 192.111 223.5 192.28C224.184 190.952 224.751 189.613 225.201 188.263C225.651 186.901 225.936 185.487 226.057 184.022L226.092 184.022C224.815 181.837 223.31 179.795 221.577 177.894C219.855 175.981 217.883 174.216 215.659 172.599L215.87 172.598C216.75 172.722 217.606 172.817 218.438 172.883C219.282 172.937 220.12 172.962 220.952 172.958C222.78 172.948 224.642 172.686 226.538 172.171C227.525 174.92 228.915 177.18 230.706 178.952C231.65 178.044 232.47 177.003 233.167 175.827C233.876 174.651 234.449 173.371 234.887 171.986C235.837 172.191 236.758 172.345 237.649 172.445C238.552 172.534 239.419 172.576 240.251 172.572C241.271 172.566 242.319 172.508 243.397 172.397C244.474 172.274 245.669 172.103 246.98 171.885Z" fill="black"/>
</svg>
