<svg width="537" height="417" viewBox="0 0 537 417" fill="none" xmlns="http://www.w3.org/2000/svg">
<rect width="537" height="417" fill="#14AF23"/>
<rect x="222" y="143" width="80" height="220" fill="#8E5F04"/>
<rect x="82" y="144" width="80" height="220" fill="#8E5F04"/>
<rect x="82" y="58" width="80" height="220" fill="#8E5F04"/>
<rect x="442.323" y="283.895" width="80" height="220" transform="rotate(90.233 442.323 283.895)" fill="#8E5F04"/>
<rect x="442.323" y="283.895" width="80" height="220" transform="rotate(90.233 442.323 283.895)" fill="#8E5F04"/>
<rect x="302.323" y="282.895" width="80" height="220" transform="rotate(90.233 302.323 282.895)" fill="#8E5F04"/>
<rect x="442.323" y="143.895" width="80" height="220" transform="rotate(90.233 442.323 143.895)" fill="#8E5F04"/>
<rect x="302.323" y="142.895" width="80" height="220" transform="rotate(90.233 302.323 142.895)" fill="#8E5F04"/>
<ellipse cx="267.5" cy="317" rx="5.5" ry="6" fill="#C4C4C4"/>
<circle cx="263.5" cy="342.5" r="2.5" fill="#C4C4C4"/>
<circle cx="261.5" cy="328.5" r="2.5" fill="#C4C4C4"/>
<circle cx="274.5" cy="328.5" r="2.5" fill="#C4C4C4"/>
<circle cx="265.5" cy="315.5" r="1.5" fill="black"/>
<circle cx="269.5" cy="315.5" r="1.5" fill="black"/>
<path d="M268 322L275.794 339.25H260.206L268 322Z" fill="#C4C4C4"/>
<circle cx="271.5" cy="342.5" r="2.5" fill="#C4C4C4"/>
<ellipse cx="121.5" cy="79" rx="5.5" ry="6" fill="#C4C4C4"/>
<circle cx="117.5" cy="104.5" r="2.5" fill="#C4C4C4"/>
<circle cx="115.5" cy="90.5" r="2.5" fill="#C4C4C4"/>
<circle cx="128.5" cy="90.5" r="2.5" fill="#C4C4C4"/>
<circle cx="119.5" cy="77.5" r="1.5" fill="black"/>
<circle cx="123.5" cy="77.5" r="1.5" fill="black"/>
<path d="M122 84L129.794 101.25H114.206L122 84Z" fill="#C4C4C4"/>
<circle cx="125.5" cy="104.5" r="2.5" fill="#C4C4C4"/>
<path d="M117.982 74.0084C117.039 75.2055 115.256 76.4971 115.256 78.0977C115.256 78.9958 114.78 80.0489 114.672 81.0187C114.545 82.1619 114.477 83.3281 114.477 84.5238C114.477 84.9582 114.586 85.5565 114.466 85.9735C114.298 86.5629 113.698 84.6123 113.698 84.3291C113.698 83.0597 113.698 81.7904 113.698 80.521C113.698 79.6356 113.487 78.5081 114.099 77.7948C114.44 77.3966 115.229 76.9488 115.689 76.6481C116.487 76.1265 117.222 75.433 118.058 74.9928C118.576 74.7204 119.029 73.9171 119.194 73.3809C119.458 72.5232 121.047 72.84 118.988 72.84C116.78 72.84 115.345 75.5871 114.52 77.3188C114.093 78.2168 114.25 79.3748 114.077 80.3263C113.754 82.1032 113.371 79.8349 113.633 79.0281C114.387 76.7057 117.56 73.9844 119.973 73.4675C122.654 72.8929 125.257 73.7754 126.356 76.2478C126.538 76.6568 126.79 77.0795 126.983 77.5135C127.206 78.0148 127.389 78.4516 127.535 78.9632C127.676 79.4564 127.83 80.1587 128.065 80.6292C128.327 81.1522 128.887 82.0935 128.887 82.6739C128.887 83.1524 128.736 83.8915 128.931 84.3291C129.352 85.2764 129.082 84.0761 129.082 83.5393C129.082 82.184 129.469 80.134 128.931 78.8766C128.729 78.407 128.604 77.6658 128.195 77.4053C127.633 77.0477 127.052 76.5649 126.594 76.1071C125.598 75.1112 124.396 74.5563 123.348 73.6189C122.341 72.7181 120.461 72.0611 119.151 72.0611C117.672 72.0611 116.488 73.3879 115.343 74.1166C114.52 74.64 114.546 75.4036 114.131 76.1504C113.812 76.7244 113.6 77.5605 113.514 78.2059C113.394 79.1065 113.317 79.9824 112.963 80.8239C112.847 81.0997 112.919 81.5033 112.919 81.7976C112.919 82.2308 112.53 82.4556 112.53 82.8686C112.53 83.257 112.56 81.8414 112.573 81.711C112.705 80.4378 113.277 79.5594 113.698 78.4006C114.074 77.3686 114.881 76.5046 115.256 75.5662C115.509 74.9344 116.826 74.2786 117.355 73.7704C117.966 73.1826 118.672 72.5742 119.497 72.2991C122.754 71.2133 125.431 72.4627 126.983 75.2849C127.753 76.6836 128.81 77.6972 129.428 79.0714C130.014 80.3732 129.861 81.8259 129.861 83.2148C129.861 84.439 129.666 80.7716 129.666 79.5474C129.666 78.7285 129.588 77.2374 129.169 76.5182C128.561 75.4773 127.948 74.6352 127.178 73.7055C126.824 73.2784 126.171 72.9211 125.685 72.6561C125.266 72.4277 125.297 71.9656 124.722 71.8772C124.36 71.8214 124.172 71.5298 123.911 71.2821C123.612 70.9987 123.092 71.0523 122.699 70.936C122.106 70.7602 121.773 70.5032 121.098 70.5032C120.298 70.5032 119.535 70.4558 118.761 70.6547C117.583 70.9576 116.704 71.3569 115.602 71.8231C114.609 72.2434 114.583 73.2489 113.806 73.8136C113.08 74.3422 112.605 76.0922 112.378 76.9293C111.957 78.4886 110.583 81.4298 110.583 81.4298C110.583 81.4298 111.462 77.8931 112.054 76.172C112.449 75.0224 113.477 74.3422 114.434 73.7271C115.085 73.3083 115.955 72.771 116.706 72.6344C117.385 72.5109 117.913 72.0325 118.577 71.8663C120.706 71.3342 122.688 71.0874 124.895 71.0874C126.866 71.0874 127.491 72.4316 128.206 74.0192C128.831 75.4087 129.098 76.8497 129.861 78.1843C130.337 79.0172 130.209 80.147 130.597 81.0187C130.89 81.6794 130.668 82.5243 130.066 81.3973C129.155 79.6878 128.678 77.7961 127.914 76.0422C127.484 75.0575 126.991 74.1743 126.453 73.2186C126.046 72.4946 125.714 71.381 125.036 70.8927C124.541 70.5364 124.215 69.919 123.521 69.919C122.218 69.919 120.815 69.8657 119.54 70.157C118.746 70.3387 118.118 70.6491 117.387 70.8927C116.43 71.2117 115.789 72.6436 115.072 73.316C112.875 75.3761 112.919 79.0659 112.919 81.8841C112.919 83.543 112.919 85.2018 112.919 86.8606C112.919 87.3943 112.919 87.928 112.919 88.4617C112.919 89.3681 112.328 89.6414 111.902 90.3657C111.713 90.6886 111.146 90.7911 110.983 91.0365C110.823 91.2765 110.972 90.4595 110.972 90.171C110.972 89.3825 110.969 88.6648 111.167 87.8991C111.55 86.4126 111.628 84.8507 112.043 83.3554C112.393 82.0961 112.872 80.8273 112.919 79.5041C112.969 78.125 112.59 81.206 112.433 81.6786C112.382 81.829 111.388 83.6083 111.362 82.9227C111.33 82.1127 111.069 80.6498 111.459 79.9477C111.712 79.4924 112.14 77.8501 112.14 78.3357C112.14 80.899 111.946 83.4334 111.946 85.9951C111.946 87.0722 112.319 89.1377 111.643 89.9979C111.367 90.349 110.54 90.9499 110.15 90.9499C109.243 90.9499 109.569 89.5789 109.706 88.8944C110.115 86.8497 110.467 84.2626 111.556 82.4251C112.444 80.9265 113.061 79.2482 113.893 77.7083C114.313 76.9312 115.006 76.1208 115.548 75.458C116.122 74.7563 116.291 74.5535 117.117 74.1166C118.543 73.3618 119.703 72.6453 121.444 72.6453C121.75 72.6453 123.624 72.4403 123.803 72.7534C124.098 73.2708 124.761 74.1979 125.274 74.5709C125.921 75.0416 125.772 74.8111 125.772 74.0084C125.772 73.3917 125.772 72.7751 125.772 72.1584C125.772 71.51 126.264 72.7534 126.356 72.7534C126.542 72.7534 127.626 72.3954 127.708 72.7643C127.933 73.7762 127.606 74.6706 128.108 75.6744C128.397 76.2526 128.298 77.0599 128.595 77.5352C129.032 78.2346 128.491 80.9177 129.082 81.2134" stroke="#F1FE62" stroke-linecap="round"/>
<path d="M110.972 89.1974C110.204 88.5971 109.822 87.348 110.388 86.4279C110.593 86.0938 111.483 83.7833 111.351 85.5083C111.289 86.3093 110.678 86.9324 110.593 87.7369C110.549 88.1612 110.712 88.7377 110.474 89.1108C110.135 89.6448 109.96 89.8687 109.793 90.4523C109.687 90.8225 109.414 89.3132 109.414 89.1974C109.414 87.8153 109.609 86.493 109.609 85.108C109.609 83.7889 110.372 82.9075 110.593 81.6894C110.691 81.1521 110.922 80.0193 111.275 79.6339C112.315 78.4994 112.764 77.3579 113.114 75.9557" stroke="#F1FE62" stroke-linecap="round"/>
<path d="M119.735 81.9923C120.58 82.711 120.614 83.1607 121.682 83.1607C122.101 83.1607 122.686 83.2622 123.089 83.1174C123.82 82.854 124.019 82.1384 124.019 81.4081" stroke="#FA3E32" stroke-linecap="round"/>
<ellipse cx="391" cy="326" rx="22" ry="21" fill="black"/>
<ellipse cx="399" cy="318.5" rx="5" ry="4.5" fill="#EE0404"/>
<ellipse cx="384" cy="318.5" rx="5" ry="4.5" fill="#EE0404"/>
<path d="M385.49 338.056L382.51 333.51L388.556 333.567L385.49 338.056Z" fill="#AC0909"/>
<path d="M390.935 338.041L387.954 333.496L394 333.552L390.935 338.041Z" fill="#AC0909"/>
<path d="M395.49 338.056L392.51 333.51L398.556 333.567L395.49 338.056Z" fill="#AC0909"/>
<path d="M400.49 338.056L397.51 333.51L403.556 333.567L400.49 338.056Z" fill="#AC0909"/>
<path d="M380.49 338.056L377.51 333.51L383.556 333.567L380.49 338.056Z" fill="#AC0909"/>
<ellipse cx="120" cy="322" rx="22" ry="21" fill="black"/>
<ellipse cx="128" cy="314.5" rx="5" ry="4.5" fill="#EE0404"/>
<ellipse cx="113" cy="314.5" rx="5" ry="4.5" fill="#EE0404"/>
<path d="M114.49 334.056L111.51 329.51L117.556 329.567L114.49 334.056Z" fill="#AC0909"/>
<path d="M119.935 334.041L116.954 329.496L123 329.552L119.935 334.041Z" fill="#AC0909"/>
<path d="M124.49 334.056L121.51 329.51L127.556 329.567L124.49 334.056Z" fill="#AC0909"/>
<path d="M129.49 334.056L126.51 329.51L132.556 329.567L129.49 334.056Z" fill="#AC0909"/>
<path d="M109.49 334.056L106.51 329.51L112.556 329.567L109.49 334.056Z" fill="#AC0909"/>
<ellipse cx="391" cy="182" rx="22" ry="21" fill="black"/>
<ellipse cx="399" cy="174.5" rx="5" ry="4.5" fill="#EE0404"/>
<ellipse cx="384" cy="174.5" rx="5" ry="4.5" fill="#EE0404"/>
<path d="M385.49 194.056L382.51 189.51L388.556 189.567L385.49 194.056Z" fill="#AC0909"/>
<path d="M390.935 194.041L387.954 189.496L394 189.552L390.935 194.041Z" fill="#AC0909"/>
<path d="M395.49 194.056L392.51 189.51L398.556 189.567L395.49 194.056Z" fill="#AC0909"/>
<path d="M400.49 194.056L397.51 189.51L403.556 189.567L400.49 194.056Z" fill="#AC0909"/>
<path d="M380.49 194.056L377.51 189.51L383.556 189.567L380.49 194.056Z" fill="#AC0909"/>
<path d="M81.2845 401.494C81.2845 391.251 81.5753 381.177 81.5753 370.944C81.5753 368.439 81.2259 365.638 79.976 363.416C78.1151 360.107 73.6002 358.456 70.0728 358.456C65.979 358.456 65 360.472 65 364.401C65 366.396 67.2287 366.984 67.908 368.343" stroke="#036631" stroke-width="8" stroke-linecap="round"/>
<path d="M82.1569 368.343C81.6643 365.818 81.2863 362.927 83.417 361.202C85.2153 359.747 87.2853 359.031 89.5884 358.617C91.9273 358.198 95.1817 357.699 97.5691 358.23C100.212 358.817 99.3139 363.467 99.3139 365.435C99.3139 365.788 99.5113 367.643 99.1523 367.745C98.1864 368.021 97.7888 368.634 96.6967 368.634" stroke="#036631" stroke-width="8" stroke-linecap="round"/>
<path d="M80.1214 381.72C79.1385 376.368 74.1659 381.528 71.6237 382.592C68.8952 383.734 68.4795 386.633 69.3619 389.28" stroke="#036631" stroke-width="8" stroke-linecap="round"/>
<path d="M81.8661 386.082C81.8661 384.943 81.4348 382.758 82.7385 382.075C84.5485 381.127 87.6388 381.72 89.5884 381.72C91.667 381.72 93.7457 381.72 95.8243 381.72C97.162 381.72 97.3397 382.17 98.4415 382.721C99.8702 383.436 99.3138 385.558 99.3138 386.938C99.3138 388.482 96.4193 388.699 95.2427 388.699" stroke="#036631" stroke-width="8" stroke-linecap="round"/>
<path d="M125.285 406.494C125.285 396.251 125.575 386.177 125.575 375.944C125.575 373.439 125.226 370.638 123.976 368.416C122.115 365.107 117.6 363.456 114.073 363.456C109.979 363.456 109 365.472 109 369.401C109 371.396 111.229 371.984 111.908 373.343" stroke="#036631" stroke-width="8" stroke-linecap="round"/>
<path d="M126.157 373.343C125.664 370.818 125.286 367.927 127.417 366.202C129.215 364.747 131.285 364.031 133.588 363.617C135.927 363.198 139.182 362.699 141.569 363.23C144.212 363.817 143.314 368.467 143.314 370.435C143.314 370.788 143.511 372.643 143.152 372.745C142.186 373.021 141.789 373.634 140.697 373.634" stroke="#036631" stroke-width="8" stroke-linecap="round"/>
<path d="M124.121 386.72C123.138 381.368 118.166 386.528 115.624 387.592C112.895 388.734 112.479 391.633 113.362 394.28" stroke="#036631" stroke-width="8" stroke-linecap="round"/>
<path d="M125.866 391.082C125.866 389.943 125.435 387.758 126.739 387.075C128.548 386.127 131.639 386.72 133.588 386.72C135.667 386.72 137.746 386.72 139.824 386.72C141.162 386.72 141.34 387.17 142.441 387.721C143.87 388.436 143.314 390.558 143.314 391.938C143.314 393.482 140.419 393.699 139.243 393.699" stroke="#036631" stroke-width="8" stroke-linecap="round"/>
<path d="M174.285 405.494C174.285 395.251 174.575 385.177 174.575 374.944C174.575 372.439 174.226 369.638 172.976 367.416C171.115 364.107 166.6 362.456 163.073 362.456C158.979 362.456 158 364.472 158 368.401C158 370.396 160.229 370.984 160.908 372.343" stroke="#036631" stroke-width="8" stroke-linecap="round"/>
<path d="M175.157 372.343C174.664 369.818 174.286 366.927 176.417 365.202C178.215 363.747 180.285 363.031 182.588 362.617C184.927 362.198 188.182 361.699 190.569 362.23C193.212 362.817 192.314 367.467 192.314 369.435C192.314 369.788 192.511 371.643 192.152 371.745C191.186 372.021 190.789 372.634 189.697 372.634" stroke="#036631" stroke-width="8" stroke-linecap="round"/>
<path d="M173.121 385.72C172.138 380.368 167.166 385.528 164.624 386.592C161.895 387.734 161.479 390.633 162.362 393.28" stroke="#036631" stroke-width="8" stroke-linecap="round"/>
<path d="M174.866 390.082C174.866 388.943 174.435 386.758 175.739 386.075C177.548 385.127 180.639 385.72 182.588 385.72C184.667 385.72 186.746 385.72 188.824 385.72C190.162 385.72 190.34 386.17 191.441 386.721C192.87 387.436 192.314 389.558 192.314 390.938C192.314 392.482 189.419 392.699 188.243 392.699" stroke="#036631" stroke-width="8" stroke-linecap="round"/>
<path d="M222.285 405.494C222.285 395.251 222.575 385.177 222.575 374.944C222.575 372.439 222.226 369.638 220.976 367.416C219.115 364.107 214.6 362.456 211.073 362.456C206.979 362.456 206 364.472 206 368.401C206 370.396 208.229 370.984 208.908 372.343" stroke="#036631" stroke-width="8" stroke-linecap="round"/>
<path d="M223.157 372.343C222.664 369.818 222.286 366.927 224.417 365.202C226.215 363.747 228.285 363.031 230.588 362.617C232.927 362.198 236.182 361.699 238.569 362.23C241.212 362.817 240.314 367.467 240.314 369.435C240.314 369.788 240.511 371.643 240.152 371.745C239.186 372.021 238.789 372.634 237.697 372.634" stroke="#036631" stroke-width="8" stroke-linecap="round"/>
<path d="M221.121 385.72C220.138 380.368 215.166 385.528 212.624 386.592C209.895 387.734 209.479 390.633 210.362 393.28" stroke="#036631" stroke-width="8" stroke-linecap="round"/>
<path d="M222.866 390.082C222.866 388.943 222.435 386.758 223.739 386.075C225.548 385.127 228.639 385.72 230.588 385.72C232.667 385.72 234.746 385.72 236.824 385.72C238.162 385.72 238.34 386.17 239.441 386.721C240.87 387.436 240.314 389.558 240.314 390.938C240.314 392.482 237.419 392.699 236.243 392.699" stroke="#036631" stroke-width="8" stroke-linecap="round"/>
<path d="M270.285 408.494C270.285 398.251 270.575 388.177 270.575 377.944C270.575 375.439 270.226 372.638 268.976 370.416C267.115 367.107 262.6 365.456 259.073 365.456C254.979 365.456 254 367.472 254 371.401C254 373.396 256.229 373.984 256.908 375.343" stroke="#036631" stroke-width="8" stroke-linecap="round"/>
<path d="M271.157 375.343C270.664 372.818 270.286 369.927 272.417 368.202C274.215 366.747 276.285 366.031 278.588 365.617C280.927 365.198 284.182 364.699 286.569 365.23C289.212 365.817 288.314 370.467 288.314 372.435C288.314 372.788 288.511 374.643 288.152 374.745C287.186 375.021 286.789 375.634 285.697 375.634" stroke="#036631" stroke-width="8" stroke-linecap="round"/>
<path d="M269.121 388.72C268.138 383.368 263.166 388.528 260.624 389.592C257.895 390.734 257.479 393.633 258.362 396.28" stroke="#036631" stroke-width="8" stroke-linecap="round"/>
<path d="M270.866 393.082C270.866 391.943 270.435 389.758 271.739 389.075C273.548 388.127 276.639 388.72 278.588 388.72C280.667 388.72 282.746 388.72 284.824 388.72C286.162 388.72 286.34 389.17 287.441 389.721C288.87 390.436 288.314 392.558 288.314 393.938C288.314 395.482 285.419 395.699 284.243 395.699" stroke="#036631" stroke-width="8" stroke-linecap="round"/>
<path d="M318.285 405.494C318.285 395.251 318.575 385.177 318.575 374.944C318.575 372.439 318.226 369.638 316.976 367.416C315.115 364.107 310.6 362.456 307.073 362.456C302.979 362.456 302 364.472 302 368.401C302 370.396 304.229 370.984 304.908 372.343" stroke="#036631" stroke-width="8" stroke-linecap="round"/>
<path d="M319.157 372.343C318.664 369.818 318.286 366.927 320.417 365.202C322.215 363.747 324.285 363.031 326.588 362.617C328.927 362.198 332.182 361.699 334.569 362.23C337.212 362.817 336.314 367.467 336.314 369.435C336.314 369.788 336.511 371.643 336.152 371.745C335.186 372.021 334.789 372.634 333.697 372.634" stroke="#036631" stroke-width="8" stroke-linecap="round"/>
<path d="M317.121 385.72C316.138 380.368 311.166 385.528 308.624 386.592C305.895 387.734 305.479 390.633 306.362 393.28" stroke="#036631" stroke-width="8" stroke-linecap="round"/>
<path d="M318.866 390.082C318.866 388.943 318.435 386.758 319.739 386.075C321.548 385.127 324.639 385.72 326.588 385.72C328.667 385.72 330.746 385.72 332.824 385.72C334.162 385.72 334.34 386.17 335.441 386.721C336.87 387.436 336.314 389.558 336.314 390.938C336.314 392.482 333.419 392.699 332.243 392.699" stroke="#036631" stroke-width="8" stroke-linecap="round"/>
<path d="M362.285 407.494C362.285 397.251 362.575 387.177 362.575 376.944C362.575 374.439 362.226 371.638 360.976 369.416C359.115 366.107 354.6 364.456 351.073 364.456C346.979 364.456 346 366.472 346 370.401C346 372.396 348.229 372.984 348.908 374.343" stroke="#036631" stroke-width="8" stroke-linecap="round"/>
<path d="M363.157 374.343C362.664 371.818 362.286 368.927 364.417 367.202C366.215 365.747 368.285 365.031 370.588 364.617C372.927 364.198 376.182 363.699 378.569 364.23C381.212 364.817 380.314 369.467 380.314 371.435C380.314 371.788 380.511 373.643 380.152 373.745C379.186 374.021 378.789 374.634 377.697 374.634" stroke="#036631" stroke-width="8" stroke-linecap="round"/>
<path d="M361.121 387.72C360.138 382.368 355.166 387.528 352.624 388.592C349.895 389.734 349.479 392.633 350.362 395.28" stroke="#036631" stroke-width="8" stroke-linecap="round"/>
<path d="M362.866 392.082C362.866 390.943 362.435 388.758 363.739 388.075C365.548 387.127 368.639 387.72 370.588 387.72C372.667 387.72 374.746 387.72 376.824 387.72C378.162 387.72 378.34 388.17 379.441 388.721C380.87 389.436 380.314 391.558 380.314 392.938C380.314 394.482 377.419 394.699 376.243 394.699" stroke="#036631" stroke-width="8" stroke-linecap="round"/>
<path d="M451.285 397.494C451.285 387.251 451.575 377.177 451.575 366.944C451.575 364.439 451.226 361.638 449.976 359.416C448.115 356.107 443.6 354.456 440.073 354.456C435.979 354.456 435 356.472 435 360.401C435 362.396 437.229 362.984 437.908 364.343" stroke="#036631" stroke-width="8" stroke-linecap="round"/>
<path d="M452.157 364.343C451.664 361.818 451.286 358.927 453.417 357.202C455.215 355.747 457.285 355.031 459.588 354.617C461.927 354.198 465.182 353.699 467.569 354.23C470.212 354.817 469.314 359.467 469.314 361.435C469.314 361.788 469.511 363.643 469.152 363.745C468.186 364.021 467.789 364.634 466.697 364.634" stroke="#036631" stroke-width="8" stroke-linecap="round"/>
<path d="M450.121 377.72C449.138 372.368 444.166 377.528 441.624 378.592C438.895 379.734 438.479 382.633 439.362 385.28" stroke="#036631" stroke-width="8" stroke-linecap="round"/>
<path d="M451.866 382.082C451.866 380.943 451.435 378.758 452.739 378.075C454.548 377.127 457.639 377.72 459.588 377.72C461.667 377.72 463.746 377.72 465.824 377.72C467.162 377.72 467.34 378.17 468.441 378.721C469.87 379.436 469.314 381.558 469.314 382.938C469.314 384.482 466.419 384.699 465.243 384.699" stroke="#036631" stroke-width="8" stroke-linecap="round"/>
<path d="M412.285 406.494C412.285 396.251 412.575 386.177 412.575 375.944C412.575 373.439 412.226 370.638 410.976 368.416C409.115 365.107 404.6 363.456 401.073 363.456C396.979 363.456 396 365.472 396 369.401C396 371.396 398.229 371.984 398.908 373.343" stroke="#036631" stroke-width="8" stroke-linecap="round"/>
<path d="M413.157 373.343C412.664 370.818 412.286 367.927 414.417 366.202C416.215 364.747 418.285 364.031 420.588 363.617C422.927 363.198 426.182 362.699 428.569 363.23C431.212 363.817 430.314 368.467 430.314 370.435C430.314 370.788 430.511 372.643 430.152 372.745C429.186 373.021 428.789 373.634 427.697 373.634" stroke="#036631" stroke-width="8" stroke-linecap="round"/>
<path d="M411.121 386.72C410.138 381.368 405.166 386.528 402.624 387.592C399.895 388.734 399.479 391.633 400.362 394.28" stroke="#036631" stroke-width="8" stroke-linecap="round"/>
<path d="M412.866 391.082C412.866 389.943 412.435 387.758 413.739 387.075C415.548 386.127 418.639 386.72 420.588 386.72C422.667 386.72 424.746 386.72 426.824 386.72C428.162 386.72 428.34 387.17 429.441 387.721C430.87 388.436 430.314 390.558 430.314 391.938C430.314 393.482 427.419 393.699 426.243 393.699" stroke="#036631" stroke-width="8" stroke-linecap="round"/>
<path d="M130.285 47.4936C130.285 37.2508 130.575 27.1774 130.575 16.944C130.575 14.4392 130.226 11.6377 128.976 9.4156C127.115 6.10747 122.6 4.45592 119.073 4.45592C114.979 4.45592 114 6.47245 114 10.4011C114 12.3956 116.229 12.9844 116.908 14.343" stroke="#036631" stroke-width="8" stroke-linecap="round"/>
<path d="M131.157 14.343C130.664 11.8181 130.286 8.92718 132.417 7.20232C134.215 5.74657 136.285 5.03084 138.588 4.61747C140.927 4.19765 144.182 3.6992 146.569 4.22974C149.212 4.81703 148.314 9.46667 148.314 11.435C148.314 11.7884 148.511 13.6427 148.152 13.7452C147.186 14.0212 146.789 14.6338 145.697 14.6338" stroke="#036631" stroke-width="8" stroke-linecap="round"/>
<path d="M129.121 27.7196C128.138 22.3683 123.166 27.5278 120.624 28.592C117.895 29.7341 117.479 32.6328 118.362 35.2802" stroke="#036631" stroke-width="8" stroke-linecap="round"/>
<path d="M130.866 32.0815C130.866 30.9425 130.435 28.7579 131.739 28.075C133.548 27.1269 136.639 27.7195 138.588 27.7195C140.667 27.7195 142.746 27.7195 144.824 27.7195C146.162 27.7195 146.34 28.1703 147.441 28.7212C148.87 29.4355 148.314 31.5578 148.314 32.9377C148.314 34.4815 145.419 34.6986 144.243 34.6986" stroke="#036631" stroke-width="8" stroke-linecap="round"/>
<path d="M62.2845 246.494C62.2845 236.251 62.5753 226.177 62.5753 215.944C62.5753 213.439 62.2259 210.638 60.976 208.416C59.1151 205.107 54.6002 203.456 51.0728 203.456C46.979 203.456 46 205.472 46 209.401C46 211.396 48.2287 211.984 48.908 213.343" stroke="#036631" stroke-width="8" stroke-linecap="round"/>
<path d="M63.1569 213.343C62.6643 210.818 62.2863 207.927 64.417 206.202C66.2153 204.747 68.2853 204.031 70.5884 203.617C72.9273 203.198 76.1817 202.699 78.5691 203.23C81.2119 203.817 80.3139 208.467 80.3139 210.435C80.3139 210.788 80.5113 212.643 80.1523 212.745C79.1864 213.021 78.7888 213.634 77.6967 213.634" stroke="#036631" stroke-width="8" stroke-linecap="round"/>
<path d="M61.1214 226.72C60.1385 221.368 55.1659 226.528 52.6237 227.592C49.8952 228.734 49.4795 231.633 50.3619 234.28" stroke="#036631" stroke-width="8" stroke-linecap="round"/>
<path d="M62.8661 231.081C62.8661 229.943 62.4348 227.758 63.7385 227.075C65.5485 226.127 68.6388 226.72 70.5884 226.72C72.667 226.72 74.7457 226.72 76.8243 226.72C78.162 226.72 78.3397 227.17 79.4415 227.721C80.8702 228.436 80.3138 230.558 80.3138 231.938C80.3138 233.482 77.4193 233.699 76.2427 233.699" stroke="#036631" stroke-width="8" stroke-linecap="round"/>
<path d="M60.2845 307.494C60.2845 297.251 60.5753 287.177 60.5753 276.944C60.5753 274.439 60.2259 271.638 58.976 269.416C57.1151 266.107 52.6002 264.456 49.0728 264.456C44.979 264.456 44 266.472 44 270.401C44 272.396 46.2287 272.984 46.908 274.343" stroke="#036631" stroke-width="8" stroke-linecap="round"/>
<path d="M61.1569 274.343C60.6643 271.818 60.2863 268.927 62.417 267.202C64.2153 265.747 66.2853 265.031 68.5884 264.617C70.9273 264.198 74.1817 263.699 76.5691 264.23C79.2119 264.817 78.3139 269.467 78.3139 271.435C78.3139 271.788 78.5113 273.643 78.1523 273.745C77.1864 274.021 76.7888 274.634 75.6967 274.634" stroke="#036631" stroke-width="8" stroke-linecap="round"/>
<path d="M59.1214 287.72C58.1385 282.368 53.1659 287.528 50.6237 288.592C47.8952 289.734 47.4795 292.633 48.3619 295.28" stroke="#036631" stroke-width="8" stroke-linecap="round"/>
<path d="M60.8661 292.081C60.8661 290.943 60.4348 288.758 61.7385 288.075C63.5485 287.127 66.6388 287.72 68.5884 287.72C70.667 287.72 72.7457 287.72 74.8243 287.72C76.162 287.72 76.3397 288.17 77.4415 288.721C78.8702 289.436 78.3138 291.558 78.3138 292.938C78.3138 294.482 75.4193 294.699 74.2427 294.699" stroke="#036631" stroke-width="8" stroke-linecap="round"/>
<path d="M60.2845 187.494C60.2845 177.251 60.5753 167.177 60.5753 156.944C60.5753 154.439 60.2259 151.638 58.976 149.416C57.1151 146.107 52.6002 144.456 49.0728 144.456C44.979 144.456 44 146.472 44 150.401C44 152.396 46.2287 152.984 46.908 154.343" stroke="#036631" stroke-width="8" stroke-linecap="round"/>
<path d="M61.1569 154.343C60.6643 151.818 60.2863 148.927 62.417 147.202C64.2153 145.747 66.2853 145.031 68.5884 144.617C70.9273 144.198 74.1817 143.699 76.5691 144.23C79.2119 144.817 78.3139 149.467 78.3139 151.435C78.3139 151.788 78.5113 153.643 78.1523 153.745C77.1864 154.021 76.7888 154.634 75.6967 154.634" stroke="#036631" stroke-width="8" stroke-linecap="round"/>
<path d="M59.1214 167.72C58.1385 162.368 53.1659 167.528 50.6237 168.592C47.8952 169.734 47.4795 172.633 48.3619 175.28" stroke="#036631" stroke-width="8" stroke-linecap="round"/>
<path d="M60.8661 172.081C60.8661 170.943 60.4348 168.758 61.7385 168.075C63.5485 167.127 66.6388 167.72 68.5884 167.72C70.667 167.72 72.7457 167.72 74.8243 167.72C76.162 167.72 76.3397 168.17 77.4415 168.721C78.8702 169.436 78.3138 171.558 78.3138 172.938C78.3138 174.482 75.4193 174.699 74.2427 174.699" stroke="#036631" stroke-width="8" stroke-linecap="round"/>
<path d="M60.2845 363.494C60.2845 353.251 60.5753 343.177 60.5753 332.944C60.5753 330.439 60.2259 327.638 58.976 325.416C57.1151 322.107 52.6002 320.456 49.0728 320.456C44.979 320.456 44 322.472 44 326.401C44 328.396 46.2287 328.984 46.908 330.343" stroke="#036631" stroke-width="8" stroke-linecap="round"/>
<path d="M61.1569 330.343C60.6643 327.818 60.2863 324.927 62.417 323.202C64.2153 321.747 66.2853 321.031 68.5884 320.617C70.9273 320.198 74.1817 319.699 76.5691 320.23C79.2119 320.817 78.3139 325.467 78.3139 327.435C78.3139 327.788 78.5113 329.643 78.1523 329.745C77.1864 330.021 76.7888 330.634 75.6967 330.634" stroke="#036631" stroke-width="8" stroke-linecap="round"/>
<path d="M59.1214 343.72C58.1385 338.368 53.1659 343.528 50.6237 344.592C47.8952 345.734 47.4795 348.633 48.3619 351.28" stroke="#036631" stroke-width="8" stroke-linecap="round"/>
<path d="M60.8661 348.081C60.8661 346.943 60.4348 344.758 61.7385 344.075C63.5485 343.127 66.6388 343.72 68.5884 343.72C70.667 343.72 72.7457 343.72 74.8243 343.72C76.162 343.72 76.3397 344.17 77.4415 344.721C78.8702 345.436 78.3138 347.558 78.3138 348.938C78.3138 350.482 75.4193 350.699 74.2427 350.699" stroke="#036631" stroke-width="8" stroke-linecap="round"/>
<path d="M57.2845 127.494C57.2845 117.251 57.5753 107.177 57.5753 96.944C57.5753 94.4392 57.2259 91.6377 55.976 89.4156C54.1151 86.1075 49.6002 84.4559 46.0728 84.4559C41.979 84.4559 41 86.4725 41 90.4011C41 92.3956 43.2287 92.9844 43.908 94.343" stroke="#036631" stroke-width="8" stroke-linecap="round"/>
<path d="M58.1569 94.343C57.6643 91.8181 57.2863 88.9272 59.417 87.2023C61.2153 85.7466 63.2853 85.0308 65.5884 84.6175C67.9273 84.1977 71.1817 83.6992 73.5691 84.2297C76.2119 84.817 75.3139 89.4667 75.3139 91.435C75.3139 91.7884 75.5113 93.6427 75.1523 93.7452C74.1864 94.0212 73.7888 94.6338 72.6967 94.6338" stroke="#036631" stroke-width="8" stroke-linecap="round"/>
<path d="M56.1214 107.72C55.1385 102.368 50.1659 107.528 47.6237 108.592C44.8952 109.734 44.4795 112.633 45.3619 115.28" stroke="#036631" stroke-width="8" stroke-linecap="round"/>
<path d="M57.8661 112.081C57.8661 110.943 57.4348 108.758 58.7385 108.075C60.5485 107.127 63.6388 107.72 65.5884 107.72C67.667 107.72 69.7457 107.72 71.8243 107.72C73.162 107.72 73.3397 108.17 74.4415 108.721C75.8702 109.436 75.3138 111.558 75.3138 112.938C75.3138 114.482 72.4193 114.699 71.2427 114.699" stroke="#036631" stroke-width="8" stroke-linecap="round"/>
<path d="M64.2845 69.4936C64.2845 59.2508 64.5753 49.1774 64.5753 38.944C64.5753 36.4392 64.2259 33.6377 62.976 31.4156C61.1151 28.1075 56.6002 26.4559 53.0728 26.4559C48.979 26.4559 48 28.4725 48 32.4011C48 34.3956 50.2287 34.9844 50.908 36.343" stroke="#036631" stroke-width="8" stroke-linecap="round"/>
<path d="M65.1569 36.343C64.6643 33.8181 64.2863 30.9272 66.417 29.2023C68.2153 27.7466 70.2853 27.0308 72.5884 26.6175C74.9273 26.1977 78.1817 25.6992 80.5691 26.2297C83.2119 26.817 82.3139 31.4667 82.3139 33.435C82.3139 33.7884 82.5113 35.6427 82.1523 35.7452C81.1864 36.0212 80.7888 36.6338 79.6967 36.6338" stroke="#036631" stroke-width="8" stroke-linecap="round"/>
<path d="M63.1214 49.7196C62.1385 44.3683 57.1659 49.5278 54.6237 50.592C51.8952 51.7341 51.4795 54.6328 52.3619 57.2802" stroke="#036631" stroke-width="8" stroke-linecap="round"/>
<path d="M64.8661 54.0815C64.8661 52.9425 64.4348 50.7579 65.7385 50.075C67.5485 49.1269 70.6388 49.7195 72.5884 49.7195C74.667 49.7195 76.7457 49.7195 78.8243 49.7195C80.162 49.7195 80.3397 50.1703 81.4415 50.7212C82.8702 51.4355 82.3138 53.5578 82.3138 54.9377C82.3138 56.4815 79.4193 56.6986 78.2427 56.6986" stroke="#036631" stroke-width="8" stroke-linecap="round"/>
<path d="M434.285 139.494C434.285 129.251 434.575 119.177 434.575 108.944C434.575 106.439 434.226 103.638 432.976 101.416C431.115 98.1075 426.6 96.4559 423.073 96.4559C418.979 96.4559 418 98.4725 418 102.401C418 104.396 420.229 104.984 420.908 106.343" stroke="#036631" stroke-width="8" stroke-linecap="round"/>
<path d="M435.157 106.343C434.664 103.818 434.286 100.927 436.417 99.2023C438.215 97.7466 440.285 97.0308 442.588 96.6175C444.927 96.1977 448.182 95.6992 450.569 96.2297C453.212 96.817 452.314 101.467 452.314 103.435C452.314 103.788 452.511 105.643 452.152 105.745C451.186 106.021 450.789 106.634 449.697 106.634" stroke="#036631" stroke-width="8" stroke-linecap="round"/>
<path d="M433.121 119.72C432.138 114.368 427.166 119.528 424.624 120.592C421.895 121.734 421.479 124.633 422.362 127.28" stroke="#036631" stroke-width="8" stroke-linecap="round"/>
<path d="M434.866 124.081C434.866 122.943 434.435 120.758 435.739 120.075C437.548 119.127 440.639 119.72 442.588 119.72C444.667 119.72 446.746 119.72 448.824 119.72C450.162 119.72 450.34 120.17 451.441 120.721C452.87 121.436 452.314 123.558 452.314 124.938C452.314 126.482 449.419 126.699 448.243 126.699" stroke="#036631" stroke-width="8" stroke-linecap="round"/>
<path d="M183.285 79.4936C183.285 69.2508 183.575 59.1774 183.575 48.944C183.575 46.4392 183.226 43.6377 181.976 41.4156C180.115 38.1075 175.6 36.4559 172.073 36.4559C167.979 36.4559 167 38.4725 167 42.4011C167 44.3956 169.229 44.9844 169.908 46.343" stroke="#036631" stroke-width="8" stroke-linecap="round"/>
<path d="M184.157 46.343C183.664 43.8181 183.286 40.9272 185.417 39.2023C187.215 37.7466 189.285 37.0308 191.588 36.6175C193.927 36.1977 197.182 35.6992 199.569 36.2297C202.212 36.817 201.314 41.4667 201.314 43.435C201.314 43.7884 201.511 45.6427 201.152 45.7452C200.186 46.0212 199.789 46.6338 198.697 46.6338" stroke="#036631" stroke-width="8" stroke-linecap="round"/>
<path d="M182.121 59.7196C181.138 54.3683 176.166 59.5278 173.624 60.592C170.895 61.7341 170.479 64.6328 171.362 67.2802" stroke="#036631" stroke-width="8" stroke-linecap="round"/>
<path d="M183.866 64.0815C183.866 62.9425 183.435 60.7579 184.739 60.075C186.548 59.1269 189.639 59.7195 191.588 59.7195C193.667 59.7195 195.746 59.7195 197.824 59.7195C199.162 59.7195 199.34 60.1703 200.441 60.7212C201.87 61.4355 201.314 63.5578 201.314 64.9377C201.314 66.4815 198.419 66.6986 197.243 66.6986" stroke="#036631" stroke-width="8" stroke-linecap="round"/>
<path d="M196.285 134.494C196.285 124.251 196.575 114.177 196.575 103.944C196.575 101.439 196.226 98.6377 194.976 96.4156C193.115 93.1075 188.6 91.4559 185.073 91.4559C180.979 91.4559 180 93.4725 180 97.4011C180 99.3956 182.229 99.9844 182.908 101.343" stroke="#036631" stroke-width="8" stroke-linecap="round"/>
<path d="M197.157 101.343C196.664 98.8181 196.286 95.9272 198.417 94.2023C200.215 92.7466 202.285 92.0308 204.588 91.6175C206.927 91.1977 210.182 90.6992 212.569 91.2297C215.212 91.817 214.314 96.4667 214.314 98.435C214.314 98.7884 214.511 100.643 214.152 100.745C213.186 101.021 212.789 101.634 211.697 101.634" stroke="#036631" stroke-width="8" stroke-linecap="round"/>
<path d="M195.121 114.72C194.138 109.368 189.166 114.528 186.624 115.592C183.895 116.734 183.479 119.633 184.362 122.28" stroke="#036631" stroke-width="8" stroke-linecap="round"/>
<path d="M196.866 119.081C196.866 117.943 196.435 115.758 197.739 115.075C199.548 114.127 202.639 114.72 204.588 114.72C206.667 114.72 208.746 114.72 210.824 114.72C212.162 114.72 212.34 115.17 213.441 115.721C214.87 116.436 214.314 118.558 214.314 119.938C214.314 121.482 211.419 121.699 210.243 121.699" stroke="#036631" stroke-width="8" stroke-linecap="round"/>
<path d="M253.285 138.494C253.285 128.251 253.575 118.177 253.575 107.944C253.575 105.439 253.226 102.638 251.976 100.416C250.115 97.1075 245.6 95.4559 242.073 95.4559C237.979 95.4559 237 97.4725 237 101.401C237 103.396 239.229 103.984 239.908 105.343" stroke="#036631" stroke-width="8" stroke-linecap="round"/>
<path d="M254.157 105.343C253.664 102.818 253.286 99.9272 255.417 98.2023C257.215 96.7466 259.285 96.0308 261.588 95.6175C263.927 95.1977 267.182 94.6992 269.569 95.2297C272.212 95.817 271.314 100.467 271.314 102.435C271.314 102.788 271.511 104.643 271.152 104.745C270.186 105.021 269.789 105.634 268.697 105.634" stroke="#036631" stroke-width="8" stroke-linecap="round"/>
<path d="M252.121 118.72C251.138 113.368 246.166 118.528 243.624 119.592C240.895 120.734 240.479 123.633 241.362 126.28" stroke="#036631" stroke-width="8" stroke-linecap="round"/>
<path d="M253.866 123.081C253.866 121.943 253.435 119.758 254.739 119.075C256.548 118.127 259.639 118.72 261.588 118.72C263.667 118.72 265.746 118.72 267.824 118.72C269.162 118.72 269.34 119.17 270.441 119.721C271.87 120.436 271.314 122.558 271.314 123.938C271.314 125.482 268.419 125.699 267.243 125.699" stroke="#036631" stroke-width="8" stroke-linecap="round"/>
<path d="M297.285 134.494C297.285 124.251 297.575 114.177 297.575 103.944C297.575 101.439 297.226 98.6377 295.976 96.4156C294.115 93.1075 289.6 91.4559 286.073 91.4559C281.979 91.4559 281 93.4725 281 97.4011C281 99.3956 283.229 99.9844 283.908 101.343" stroke="#036631" stroke-width="8" stroke-linecap="round"/>
<path d="M298.157 101.343C297.664 98.8181 297.286 95.9272 299.417 94.2023C301.215 92.7466 303.285 92.0308 305.588 91.6175C307.927 91.1977 311.182 90.6992 313.569 91.2297C316.212 91.817 315.314 96.4667 315.314 98.435C315.314 98.7884 315.511 100.643 315.152 100.745C314.186 101.021 313.789 101.634 312.697 101.634" stroke="#036631" stroke-width="8" stroke-linecap="round"/>
<path d="M296.121 114.72C295.138 109.368 290.166 114.528 287.624 115.592C284.895 116.734 284.479 119.633 285.362 122.28" stroke="#036631" stroke-width="8" stroke-linecap="round"/>
<path d="M297.866 119.081C297.866 117.943 297.435 115.758 298.739 115.075C300.548 114.127 303.639 114.72 305.588 114.72C307.667 114.72 309.746 114.72 311.824 114.72C313.162 114.72 313.34 115.17 314.441 115.721C315.87 116.436 315.314 118.558 315.314 119.938C315.314 121.482 312.419 121.699 311.243 121.699" stroke="#036631" stroke-width="8" stroke-linecap="round"/>
<path d="M338.285 140.494C338.285 130.251 338.575 120.177 338.575 109.944C338.575 107.439 338.226 104.638 336.976 102.416C335.115 99.1075 330.6 97.4559 327.073 97.4559C322.979 97.4559 322 99.4725 322 103.401C322 105.396 324.229 105.984 324.908 107.343" stroke="#036631" stroke-width="8" stroke-linecap="round"/>
<path d="M339.157 107.343C338.664 104.818 338.286 101.927 340.417 100.202C342.215 98.7466 344.285 98.0308 346.588 97.6175C348.927 97.1977 352.182 96.6992 354.569 97.2297C357.212 97.817 356.314 102.467 356.314 104.435C356.314 104.788 356.511 106.643 356.152 106.745C355.186 107.021 354.789 107.634 353.697 107.634" stroke="#036631" stroke-width="8" stroke-linecap="round"/>
<path d="M337.121 120.72C336.138 115.368 331.166 120.528 328.624 121.592C325.895 122.734 325.479 125.633 326.362 128.28" stroke="#036631" stroke-width="8" stroke-linecap="round"/>
<path d="M338.866 125.081C338.866 123.943 338.435 121.758 339.739 121.075C341.548 120.127 344.639 120.72 346.588 120.72C348.667 120.72 350.746 120.72 352.824 120.72C354.162 120.72 354.34 121.17 355.441 121.721C356.87 122.436 356.314 124.558 356.314 125.938C356.314 127.482 353.419 127.699 352.243 127.699" stroke="#036631" stroke-width="8" stroke-linecap="round"/>
<path d="M387.285 138.494C387.285 128.251 387.575 118.177 387.575 107.944C387.575 105.439 387.226 102.638 385.976 100.416C384.115 97.1075 379.6 95.4559 376.073 95.4559C371.979 95.4559 371 97.4725 371 101.401C371 103.396 373.229 103.984 373.908 105.343" stroke="#036631" stroke-width="8" stroke-linecap="round"/>
<path d="M388.157 105.343C387.664 102.818 387.286 99.9272 389.417 98.2023C391.215 96.7466 393.285 96.0308 395.588 95.6175C397.927 95.1977 401.182 94.6992 403.569 95.2297C406.212 95.817 405.314 100.467 405.314 102.435C405.314 102.788 405.511 104.643 405.152 104.745C404.186 105.021 403.789 105.634 402.697 105.634" stroke="#036631" stroke-width="8" stroke-linecap="round"/>
<path d="M386.121 118.72C385.138 113.368 380.166 118.528 377.624 119.592C374.895 120.734 374.479 123.633 375.362 126.28" stroke="#036631" stroke-width="8" stroke-linecap="round"/>
<path d="M387.866 123.081C387.866 121.943 387.435 119.758 388.739 119.075C390.548 118.127 393.639 118.72 395.588 118.72C397.667 118.72 399.746 118.72 401.824 118.72C403.162 118.72 403.34 119.17 404.441 119.721C405.87 120.436 405.314 122.558 405.314 123.938C405.314 125.482 402.419 125.699 401.243 125.699" stroke="#036631" stroke-width="8" stroke-linecap="round"/>
<path d="M466.285 182.494C466.285 172.251 466.575 162.177 466.575 151.944C466.575 149.439 466.226 146.638 464.976 144.416C463.115 141.107 458.6 139.456 455.073 139.456C450.979 139.456 450 141.472 450 145.401C450 147.396 452.229 147.984 452.908 149.343" stroke="#036631" stroke-width="8" stroke-linecap="round"/>
<path d="M467.157 149.343C466.664 146.818 466.286 143.927 468.417 142.202C470.215 140.747 472.285 140.031 474.588 139.617C476.927 139.198 480.182 138.699 482.569 139.23C485.212 139.817 484.314 144.467 484.314 146.435C484.314 146.788 484.511 148.643 484.152 148.745C483.186 149.021 482.789 149.634 481.697 149.634" stroke="#036631" stroke-width="8" stroke-linecap="round"/>
<path d="M465.121 162.72C464.138 157.368 459.166 162.528 456.624 163.592C453.895 164.734 453.479 167.633 454.362 170.28" stroke="#036631" stroke-width="8" stroke-linecap="round"/>
<path d="M466.866 167.081C466.866 165.943 466.435 163.758 467.739 163.075C469.548 162.127 472.639 162.72 474.588 162.72C476.667 162.72 478.746 162.72 480.824 162.72C482.162 162.72 482.34 163.17 483.441 163.721C484.87 164.436 484.314 166.558 484.314 167.938C484.314 169.482 481.419 169.699 480.243 169.699" stroke="#036631" stroke-width="8" stroke-linecap="round"/>
<path d="M466.285 237.494C466.285 227.251 466.575 217.177 466.575 206.944C466.575 204.439 466.226 201.638 464.976 199.416C463.115 196.107 458.6 194.456 455.073 194.456C450.979 194.456 450 196.472 450 200.401C450 202.396 452.229 202.984 452.908 204.343" stroke="#036631" stroke-width="8" stroke-linecap="round"/>
<path d="M467.157 204.343C466.664 201.818 466.286 198.927 468.417 197.202C470.215 195.747 472.285 195.031 474.588 194.617C476.927 194.198 480.182 193.699 482.569 194.23C485.212 194.817 484.314 199.467 484.314 201.435C484.314 201.788 484.511 203.643 484.152 203.745C483.186 204.021 482.789 204.634 481.697 204.634" stroke="#036631" stroke-width="8" stroke-linecap="round"/>
<path d="M465.121 217.72C464.138 212.368 459.166 217.528 456.624 218.592C453.895 219.734 453.479 222.633 454.362 225.28" stroke="#036631" stroke-width="8" stroke-linecap="round"/>
<path d="M466.866 222.081C466.866 220.943 466.435 218.758 467.739 218.075C469.548 217.127 472.639 217.72 474.588 217.72C476.667 217.72 478.746 217.72 480.824 217.72C482.162 217.72 482.34 218.17 483.441 218.721C484.87 219.436 484.314 221.558 484.314 222.938C484.314 224.482 481.419 224.699 480.243 224.699" stroke="#036631" stroke-width="8" stroke-linecap="round"/>
<path d="M462.285 348.494C462.285 338.251 462.575 328.177 462.575 317.944C462.575 315.439 462.226 312.638 460.976 310.416C459.115 307.107 454.6 305.456 451.073 305.456C446.979 305.456 446 307.472 446 311.401C446 313.396 448.229 313.984 448.908 315.343" stroke="#036631" stroke-width="8" stroke-linecap="round"/>
<path d="M463.157 315.343C462.664 312.818 462.286 309.927 464.417 308.202C466.215 306.747 468.285 306.031 470.588 305.617C472.927 305.198 476.182 304.699 478.569 305.23C481.212 305.817 480.314 310.467 480.314 312.435C480.314 312.788 480.511 314.643 480.152 314.745C479.186 315.021 478.789 315.634 477.697 315.634" stroke="#036631" stroke-width="8" stroke-linecap="round"/>
<path d="M461.121 328.72C460.138 323.368 455.166 328.528 452.624 329.592C449.895 330.734 449.479 333.633 450.362 336.28" stroke="#036631" stroke-width="8" stroke-linecap="round"/>
<path d="M462.866 333.081C462.866 331.943 462.435 329.758 463.739 329.075C465.548 328.127 468.639 328.72 470.588 328.72C472.667 328.72 474.746 328.72 476.824 328.72C478.162 328.72 478.34 329.17 479.441 329.721C480.87 330.436 480.314 332.558 480.314 333.938C480.314 335.482 477.419 335.699 476.243 335.699" stroke="#036631" stroke-width="8" stroke-linecap="round"/>
<path d="M458.285 293.494C458.285 283.251 458.575 273.177 458.575 262.944C458.575 260.439 458.226 257.638 456.976 255.416C455.115 252.107 450.6 250.456 447.073 250.456C442.979 250.456 442 252.472 442 256.401C442 258.396 444.229 258.984 444.908 260.343" stroke="#036631" stroke-width="8" stroke-linecap="round"/>
<path d="M459.157 260.343C458.664 257.818 458.286 254.927 460.417 253.202C462.215 251.747 464.285 251.031 466.588 250.617C468.927 250.198 472.182 249.699 474.569 250.23C477.212 250.817 476.314 255.467 476.314 257.435C476.314 257.788 476.511 259.643 476.152 259.745C475.186 260.021 474.789 260.634 473.697 260.634" stroke="#036631" stroke-width="8" stroke-linecap="round"/>
<path d="M457.121 273.72C456.138 268.368 451.166 273.528 448.624 274.592C445.895 275.734 445.479 278.633 446.362 281.28" stroke="#036631" stroke-width="8" stroke-linecap="round"/>
<path d="M458.866 278.081C458.866 276.943 458.435 274.758 459.739 274.075C461.548 273.127 464.639 273.72 466.588 273.72C468.667 273.72 470.746 273.72 472.824 273.72C474.162 273.72 474.34 274.17 475.441 274.721C476.87 275.436 476.314 277.558 476.314 278.938C476.314 280.482 473.419 280.699 472.243 280.699" stroke="#036631" stroke-width="8" stroke-linecap="round"/>
<path d="M409.285 276.494C409.285 266.251 409.575 256.177 409.575 245.944C409.575 243.439 409.226 240.638 407.976 238.416C406.115 235.107 401.6 233.456 398.073 233.456C393.979 233.456 393 235.472 393 239.401C393 241.396 395.229 241.984 395.908 243.343" stroke="#036631" stroke-width="8" stroke-linecap="round"/>
<path d="M410.157 243.343C409.664 240.818 409.286 237.927 411.417 236.202C413.215 234.747 415.285 234.031 417.588 233.617C419.927 233.198 423.182 232.699 425.569 233.23C428.212 233.817 427.314 238.467 427.314 240.435C427.314 240.788 427.511 242.643 427.152 242.745C426.186 243.021 425.789 243.634 424.697 243.634" stroke="#036631" stroke-width="8" stroke-linecap="round"/>
<path d="M408.121 256.72C407.138 251.368 402.166 256.528 399.624 257.592C396.895 258.734 396.479 261.633 397.362 264.28" stroke="#036631" stroke-width="8" stroke-linecap="round"/>
<path d="M409.866 261.081C409.866 259.943 409.435 257.758 410.739 257.075C412.548 256.127 415.639 256.72 417.588 256.72C419.667 256.72 421.746 256.72 423.824 256.72C425.162 256.72 425.34 257.17 426.441 257.721C427.87 258.436 427.314 260.558 427.314 261.938C427.314 263.482 424.419 263.699 423.243 263.699" stroke="#036631" stroke-width="8" stroke-linecap="round"/>
<path d="M366.285 276.494C366.285 266.251 366.575 256.177 366.575 245.944C366.575 243.439 366.226 240.638 364.976 238.416C363.115 235.107 358.6 233.456 355.073 233.456C350.979 233.456 350 235.472 350 239.401C350 241.396 352.229 241.984 352.908 243.343" stroke="#036631" stroke-width="8" stroke-linecap="round"/>
<path d="M367.157 243.343C366.664 240.818 366.286 237.927 368.417 236.202C370.215 234.747 372.285 234.031 374.588 233.617C376.927 233.198 380.182 232.699 382.569 233.23C385.212 233.817 384.314 238.467 384.314 240.435C384.314 240.788 384.511 242.643 384.152 242.745C383.186 243.021 382.789 243.634 381.697 243.634" stroke="#036631" stroke-width="8" stroke-linecap="round"/>
<path d="M365.121 256.72C364.138 251.368 359.166 256.528 356.624 257.592C353.895 258.734 353.479 261.633 354.362 264.28" stroke="#036631" stroke-width="8" stroke-linecap="round"/>
<path d="M366.866 261.081C366.866 259.943 366.435 257.758 367.739 257.075C369.548 256.127 372.639 256.72 374.588 256.72C376.667 256.72 378.746 256.72 380.824 256.72C382.162 256.72 382.34 257.17 383.441 257.721C384.87 258.436 384.314 260.558 384.314 261.938C384.314 263.482 381.419 263.699 380.243 263.699" stroke="#036631" stroke-width="8" stroke-linecap="round"/>
<path d="M323.285 277.494C323.285 267.251 323.575 257.177 323.575 246.944C323.575 244.439 323.226 241.638 321.976 239.416C320.115 236.107 315.6 234.456 312.073 234.456C307.979 234.456 307 236.472 307 240.401C307 242.396 309.229 242.984 309.908 244.343" stroke="#036631" stroke-width="8" stroke-linecap="round"/>
<path d="M324.157 244.343C323.664 241.818 323.286 238.927 325.417 237.202C327.215 235.747 329.285 235.031 331.588 234.617C333.927 234.198 337.182 233.699 339.569 234.23C342.212 234.817 341.314 239.467 341.314 241.435C341.314 241.788 341.511 243.643 341.152 243.745C340.186 244.021 339.789 244.634 338.697 244.634" stroke="#036631" stroke-width="8" stroke-linecap="round"/>
<path d="M322.121 257.72C321.138 252.368 316.166 257.528 313.624 258.592C310.895 259.734 310.479 262.633 311.362 265.28" stroke="#036631" stroke-width="8" stroke-linecap="round"/>
<path d="M323.866 262.081C323.866 260.943 323.435 258.758 324.739 258.075C326.548 257.127 329.639 257.72 331.588 257.72C333.667 257.72 335.746 257.72 337.824 257.72C339.162 257.72 339.34 258.17 340.441 258.721C341.87 259.436 341.314 261.558 341.314 262.938C341.314 264.482 338.419 264.699 337.243 264.699" stroke="#036631" stroke-width="8" stroke-linecap="round"/>
<path d="M211.285 266.494C211.285 256.251 211.575 246.177 211.575 235.944C211.575 233.439 211.226 230.638 209.976 228.416C208.115 225.107 203.6 223.456 200.073 223.456C195.979 223.456 195 225.472 195 229.401C195 231.396 197.229 231.984 197.908 233.343" stroke="#036631" stroke-width="8" stroke-linecap="round"/>
<path d="M212.157 233.343C211.664 230.818 211.286 227.927 213.417 226.202C215.215 224.747 217.285 224.031 219.588 223.617C221.927 223.198 225.182 222.699 227.569 223.23C230.212 223.817 229.314 228.467 229.314 230.435C229.314 230.788 229.511 232.643 229.152 232.745C228.186 233.021 227.789 233.634 226.697 233.634" stroke="#036631" stroke-width="8" stroke-linecap="round"/>
<path d="M210.121 246.72C209.138 241.368 204.166 246.528 201.624 247.592C198.895 248.734 198.479 251.633 199.362 254.28" stroke="#036631" stroke-width="8" stroke-linecap="round"/>
<path d="M211.866 251.081C211.866 249.943 211.435 247.758 212.739 247.075C214.548 246.127 217.639 246.72 219.588 246.72C221.667 246.72 223.746 246.72 225.824 246.72C227.162 246.72 227.34 247.17 228.441 247.721C229.87 248.436 229.314 250.558 229.314 251.938C229.314 253.482 226.419 253.699 225.243 253.699" stroke="#036631" stroke-width="8" stroke-linecap="round"/>
<path d="M178.285 278.494C178.285 268.251 178.575 258.177 178.575 247.944C178.575 245.439 178.226 242.638 176.976 240.416C175.115 237.107 170.6 235.456 167.073 235.456C162.979 235.456 162 237.472 162 241.401C162 243.396 164.229 243.984 164.908 245.343" stroke="#036631" stroke-width="8" stroke-linecap="round"/>
<path d="M179.157 245.343C178.664 242.818 178.286 239.927 180.417 238.202C182.215 236.747 184.285 236.031 186.588 235.617C188.927 235.198 192.182 234.699 194.569 235.23C197.212 235.817 196.314 240.467 196.314 242.435C196.314 242.788 196.511 244.643 196.152 244.745C195.186 245.021 194.789 245.634 193.697 245.634" stroke="#036631" stroke-width="8" stroke-linecap="round"/>
<path d="M177.121 258.72C176.138 253.368 171.166 258.528 168.624 259.592C165.895 260.734 165.479 263.633 166.362 266.28" stroke="#036631" stroke-width="8" stroke-linecap="round"/>
<path d="M178.866 263.081C178.866 261.943 178.435 259.758 179.739 259.075C181.548 258.127 184.639 258.72 186.588 258.72C188.667 258.72 190.746 258.72 192.824 258.72C194.162 258.72 194.34 259.17 195.441 259.721C196.87 260.436 196.314 262.558 196.314 263.938C196.314 265.482 193.419 265.699 192.243 265.699" stroke="#036631" stroke-width="8" stroke-linecap="round"/>
</svg>
