<svg width="537" height="417" viewBox="0 0 537 417" fill="none" xmlns="http://www.w3.org/2000/svg">
<rect width="537" height="417" fill="#14AF23"/>
<rect x="222" y="143" width="80" height="220" fill="#8E5F04"/>
<rect x="82" y="144" width="80" height="220" fill="#8E5F04"/>
<rect x="82" y="58" width="80" height="220" fill="#8E5F04"/>
<rect x="442.323" y="283.895" width="80" height="220" transform="rotate(90.233 442.323 283.895)" fill="#8E5F04"/>
<rect x="442.323" y="283.895" width="80" height="220" transform="rotate(90.233 442.323 283.895)" fill="#8E5F04"/>
<rect x="302.323" y="282.895" width="80" height="220" transform="rotate(90.233 302.323 282.895)" fill="#8E5F04"/>
<rect x="442.323" y="143.895" width="80" height="220" transform="rotate(90.233 442.323 143.895)" fill="#8E5F04"/>
<rect x="302.323" y="142.895" width="80" height="220" transform="rotate(90.233 302.323 142.895)" fill="#8E5F04"/>
<ellipse cx="133.5" cy="78" rx="5.5" ry="6" fill="#C4C4C4"/>
<circle cx="129.5" cy="103.5" r="2.5" fill="#C4C4C4"/>
<circle cx="127.5" cy="89.5" r="2.5" fill="#C4C4C4"/>
<circle cx="140.5" cy="89.5" r="2.5" fill="#C4C4C4"/>
<circle cx="131.5" cy="76.5" r="1.5" fill="black"/>
<circle cx="135.5" cy="76.5" r="1.5" fill="black"/>
<path d="M134 83L141.794 100.25H126.206L134 83Z" fill="#C4C4C4"/>
<circle cx="137.5" cy="103.5" r="2.5" fill="#C4C4C4"/>
<path d="M132 81.3269C132.789 81.729 132.821 81.9807 133.818 81.9807C134.209 81.9807 134.756 82.0374 135.131 81.9564C135.815 81.809 136 81.4086 136 81" stroke="#FA3E32" stroke-linecap="round"/>
<ellipse cx="112.086" cy="78.0848" rx="5.5" ry="6" fill="#C4C4C4"/>
<circle cx="108.086" cy="103.585" r="2.5" fill="#C4C4C4"/>
<circle cx="106.086" cy="89.5848" r="2.5" fill="#C4C4C4"/>
<circle cx="119.086" cy="89.5848" r="2.5" fill="#C4C4C4"/>
<circle cx="110.086" cy="76.5848" r="1.5" fill="black"/>
<circle cx="114.086" cy="76.5848" r="1.5" fill="black"/>
<path d="M112.586 83.0848L120.38 100.335H104.792L112.586 83.0848Z" fill="#C4C4C4"/>
<circle cx="116.086" cy="103.585" r="2.5" fill="#C4C4C4"/>
<path d="M108.568 73.0932C107.625 74.2903 105.842 75.5819 105.842 77.1825C105.842 78.0807 105.365 79.1337 105.258 80.1035C105.131 81.2467 105.063 82.4129 105.063 83.6086C105.063 84.043 105.171 84.6413 105.052 85.0583C104.884 85.6477 104.284 83.6971 104.284 83.4139C104.284 82.1445 104.284 80.8752 104.284 79.6058C104.284 78.7205 104.073 77.5929 104.684 76.8796C105.026 76.4814 105.815 76.0336 106.275 75.7329C107.072 75.2113 107.808 74.5178 108.644 74.0776C109.161 73.8053 109.615 73.0019 109.78 72.4657C110.044 71.608 111.633 71.9248 109.574 71.9248C107.365 71.9248 105.931 74.6719 105.106 76.4036C104.679 77.3016 104.836 78.4596 104.663 79.4111C104.34 81.188 103.957 78.9197 104.219 78.1129C104.973 75.7905 108.146 73.0692 110.559 72.5523C113.24 71.9777 115.843 72.8602 116.942 75.3326C117.123 75.7416 117.376 76.1643 117.569 76.5983C117.792 77.0996 117.975 77.5365 118.121 78.048C118.262 78.5412 118.416 79.2435 118.651 79.714C118.912 80.237 119.473 81.1783 119.473 81.7587C119.473 82.2372 119.322 82.9763 119.516 83.4139C119.937 84.3612 119.668 83.1609 119.668 82.6242C119.668 81.2688 120.055 79.2188 119.516 77.9614C119.315 77.4918 119.19 76.7506 118.781 76.4901C118.219 76.1325 117.637 75.6497 117.18 75.1919C116.184 74.196 114.982 73.6412 113.934 72.7037C112.927 71.8029 111.047 71.1459 109.737 71.1459C108.258 71.1459 107.074 72.4727 105.928 73.2014C105.106 73.7248 105.132 74.4884 104.717 75.2352C104.398 75.8092 104.186 76.6453 104.1 77.2907C103.98 78.1914 103.903 79.0672 103.548 79.9087C103.432 80.1845 103.505 80.5881 103.505 80.8824C103.505 81.3156 103.116 81.5404 103.116 81.9534C103.116 82.3418 103.146 80.9262 103.159 80.7959C103.291 79.5226 103.863 78.6442 104.284 77.4854C104.659 76.4534 105.467 75.5894 105.842 74.651C106.095 74.0192 107.412 73.3634 107.941 72.8552C108.552 72.2674 109.257 71.659 110.083 71.3839C113.34 70.2981 116.017 71.5475 117.569 74.3697C118.338 75.7684 119.396 76.782 120.014 78.1562C120.6 79.458 120.447 80.9107 120.447 82.2996C120.447 83.5238 120.252 79.8564 120.252 78.6322C120.252 77.8133 120.174 76.3222 119.754 75.603C119.147 74.5621 118.534 73.72 117.764 72.7903C117.41 72.3632 116.757 72.0059 116.271 71.7409C115.852 71.5125 115.883 71.0505 115.308 70.962C114.945 70.9062 114.758 70.6146 114.497 70.367C114.197 70.0835 113.677 70.1371 113.285 70.0208C112.692 69.845 112.359 69.588 111.684 69.588C110.884 69.588 110.12 69.5406 109.347 69.7395C108.169 70.0424 107.29 70.4417 106.188 70.9079C105.195 71.3282 105.169 72.3337 104.392 72.8984C103.665 73.427 103.19 75.177 102.964 76.0141C102.543 77.5734 101.168 80.5146 101.168 80.5146C101.168 80.5146 102.048 76.9779 102.64 75.2569C103.035 74.1072 104.063 73.427 105.02 72.8119C105.671 72.3932 106.54 71.8558 107.292 71.7192C107.971 71.5957 108.499 71.1173 109.163 70.9511C111.292 70.419 113.274 70.1722 115.481 70.1722C117.451 70.1722 118.077 71.5164 118.792 73.104C119.417 74.4935 119.684 75.9345 120.447 77.2691C120.923 78.102 120.795 79.2318 121.182 80.1035C121.476 80.7642 121.253 81.6091 120.652 80.4821C119.741 78.7726 119.264 76.8809 118.499 75.127C118.07 74.1423 117.577 73.2591 117.039 72.3034C116.632 71.5794 116.3 70.4658 115.622 69.9775C115.127 69.6212 114.8 69.0038 114.107 69.0038C112.803 69.0038 111.401 68.9505 110.126 69.2418C109.331 69.4235 108.704 69.7339 107.973 69.9775C107.016 70.2965 106.375 71.7284 105.658 72.4008C103.461 74.4609 103.505 78.1507 103.505 80.9689C103.505 82.6278 103.505 84.2866 103.505 85.9454C103.505 86.4791 103.505 87.0128 103.505 87.5465C103.505 88.4529 102.914 88.7263 102.488 89.4505C102.298 89.7734 101.732 89.8759 101.569 90.1213C101.409 90.3613 101.558 89.5443 101.558 89.2558C101.558 88.4673 101.555 87.7496 101.753 86.984C102.136 85.4975 102.214 83.9355 102.629 82.4402C102.979 81.1809 103.458 79.9121 103.505 78.5889C103.554 77.2098 103.176 80.2908 103.018 80.7634C102.968 80.9138 101.974 82.6931 101.947 82.0075C101.916 81.1975 101.655 79.7346 102.045 79.0325C102.298 78.5772 102.726 76.9349 102.726 77.4205C102.726 79.9838 102.532 82.5182 102.532 85.0799C102.532 86.157 102.904 88.2225 102.229 89.0827C101.953 89.4338 101.126 90.0347 100.736 90.0347C99.8291 90.0347 100.155 88.6637 100.292 87.9792C100.701 85.9345 101.053 83.3474 102.142 81.5099C103.03 80.0114 103.646 78.333 104.479 76.7931C104.899 76.016 105.592 75.2056 106.134 74.5428C106.708 73.8411 106.877 73.6383 107.703 73.2014C109.128 72.4466 110.289 71.7301 112.03 71.7301C112.335 71.7301 114.21 71.5251 114.388 71.8382C114.684 72.3556 115.347 73.2827 115.86 73.6557C116.507 74.1264 116.357 73.8959 116.357 73.0932C116.357 72.4765 116.357 71.8599 116.357 71.2432C116.357 70.5949 116.849 71.8382 116.942 71.8382C117.128 71.8382 118.212 71.4802 118.294 71.8491C118.519 72.861 118.192 73.7554 118.694 74.7592C118.983 75.3374 118.884 76.1447 119.181 76.62C119.618 77.3194 119.076 80.0025 119.668 80.2982" stroke="#F1FE62" stroke-linecap="round"/>
<path d="M101.558 88.2822C100.79 87.6819 100.407 86.4328 100.974 85.5127C101.179 85.1786 102.069 82.8681 101.936 84.5931C101.875 85.3941 101.264 86.0172 101.179 86.8217C101.135 87.246 101.298 87.8225 101.06 88.1956C100.72 88.7296 100.545 88.9535 100.379 89.5371C100.273 89.9073 100 88.398 100 88.2822C100 86.9001 100.195 85.5778 100.195 84.1928C100.195 82.8738 100.958 81.9923 101.179 80.7742C101.277 80.2369 101.508 79.1041 101.861 78.7187C102.901 77.5843 103.349 76.4427 103.7 75.0405" stroke="#F1FE62" stroke-linecap="round"/>
<path d="M110.321 81.0771C111.166 81.7958 111.2 82.2455 112.268 82.2455C112.687 82.2455 113.272 82.347 113.674 82.2022C114.406 81.9388 114.605 81.2232 114.605 80.4929" stroke="#FA3E32" stroke-linecap="round"/>
<path d="M268 254L247.793 289H288.207L268 254ZM271.5 302V285.5H264.5V302H271.5Z" fill="#FF0000"/>
<path d="M122 118L101.793 153H142.207L122 118ZM125.5 166V149.5H118.5V166H125.5Z" fill="#FF0000"/>
<path d="M121.852 260.992L141.435 225.639L101.027 226.357L121.852 260.992ZM117.501 213.062L117.794 229.56L124.792 229.435L124.499 212.938L117.501 213.062Z" fill="#FF0000"/>
<path d="M341 331L306 310.793V351.207L341 331ZM293 334.5H309.5V327.5H293V334.5Z" fill="#FF0000"/>
<path d="M341 183L306 162.793V203.207L341 183ZM293 186.5H309.5V179.5H293V186.5Z" fill="#FF0000"/>
<path d="M195 331L229.999 351.209L230.001 310.795L195 331ZM243 327.503L226.5 327.502L226.5 334.502L243 334.503L243 327.503Z" fill="#FF0000"/>
<path d="M195 182L229.999 202.209L230.001 161.795L195 182ZM243 178.503L226.5 178.502L226.5 185.502L243 185.503L243 178.503Z" fill="#FF0000"/>
<ellipse cx="391" cy="326" rx="22" ry="21" fill="black"/>
<ellipse cx="399" cy="318.5" rx="5" ry="4.5" fill="#EE0404"/>
<ellipse cx="384" cy="318.5" rx="5" ry="4.5" fill="#EE0404"/>
<ellipse cx="120" cy="322" rx="22" ry="21" fill="black"/>
<ellipse cx="128" cy="314.5" rx="5" ry="4.5" fill="#EE0404"/>
<ellipse cx="113" cy="314.5" rx="5" ry="4.5" fill="#EE0404"/>
<ellipse cx="391" cy="182" rx="22" ry="21" fill="black"/>
<ellipse cx="399" cy="174.5" rx="5" ry="4.5" fill="#EE0404"/>
<ellipse cx="384" cy="174.5" rx="5" ry="4.5" fill="#EE0404"/>
<path d="M81.2845 401.494C81.2845 391.251 81.5753 381.177 81.5753 370.944C81.5753 368.439 81.2259 365.638 79.976 363.416C78.1151 360.107 73.6002 358.456 70.0728 358.456C65.979 358.456 65 360.472 65 364.401C65 366.396 67.2287 366.984 67.908 368.343" stroke="#036631" stroke-width="8" stroke-linecap="round"/>
<path d="M82.1571 368.343C81.6644 365.818 81.2865 362.927 83.4172 361.202C85.2154 359.747 87.2855 359.031 89.5885 358.617C91.9275 358.198 95.1818 357.699 97.5692 358.23C100.212 358.817 99.314 363.467 99.314 365.435C99.314 365.788 99.5114 367.643 99.1524 367.745C98.1865 368.021 97.789 368.634 96.6968 368.634" stroke="#036631" stroke-width="8" stroke-linecap="round"/>
<path d="M80.1214 381.72C79.1385 376.368 74.1659 381.528 71.6237 382.592C68.8952 383.734 68.4795 386.633 69.3619 389.28" stroke="#036631" stroke-width="8" stroke-linecap="round"/>
<path d="M81.8662 386.081C81.8662 384.943 81.4349 382.758 82.7386 382.075C84.5486 381.127 87.6389 381.72 89.5885 381.72C91.6671 381.72 93.7458 381.72 95.8244 381.72C97.1622 381.72 97.3399 382.17 98.4416 382.721C99.8703 383.436 99.314 385.558 99.314 386.938C99.314 388.482 96.4194 388.699 95.2428 388.699" stroke="#036631" stroke-width="8" stroke-linecap="round"/>
<path d="M125.285 406.494C125.285 396.251 125.575 386.177 125.575 375.944C125.575 373.439 125.226 370.638 123.976 368.416C122.115 365.107 117.6 363.456 114.073 363.456C109.979 363.456 109 365.472 109 369.401C109 371.396 111.229 371.984 111.908 373.343" stroke="#036631" stroke-width="8" stroke-linecap="round"/>
<path d="M126.157 373.343C125.664 370.818 125.286 367.927 127.417 366.202C129.215 364.747 131.285 364.031 133.588 363.617C135.927 363.198 139.182 362.699 141.569 363.23C144.212 363.817 143.314 368.467 143.314 370.435C143.314 370.788 143.511 372.643 143.152 372.745C142.187 373.021 141.789 373.634 140.697 373.634" stroke="#036631" stroke-width="8" stroke-linecap="round"/>
<path d="M124.121 386.72C123.138 381.368 118.166 386.528 115.624 387.592C112.895 388.734 112.479 391.633 113.362 394.28" stroke="#036631" stroke-width="8" stroke-linecap="round"/>
<path d="M125.866 391.081C125.866 389.943 125.435 387.758 126.739 387.075C128.549 386.127 131.639 386.72 133.588 386.72C135.667 386.72 137.746 386.72 139.824 386.72C141.162 386.72 141.34 387.17 142.442 387.721C143.87 388.436 143.314 390.558 143.314 391.938C143.314 393.482 140.419 393.699 139.243 393.699" stroke="#036631" stroke-width="8" stroke-linecap="round"/>
<path d="M174.285 405.494C174.285 395.251 174.575 385.177 174.575 374.944C174.575 372.439 174.226 369.638 172.976 367.416C171.115 364.107 166.6 362.456 163.073 362.456C158.979 362.456 158 364.472 158 368.401C158 370.396 160.229 370.984 160.908 372.343" stroke="#036631" stroke-width="8" stroke-linecap="round"/>
<path d="M175.157 372.343C174.664 369.818 174.286 366.927 176.417 365.202C178.215 363.747 180.285 363.031 182.588 362.617C184.927 362.198 188.182 361.699 190.569 362.23C193.212 362.817 192.314 367.467 192.314 369.435C192.314 369.788 192.511 371.643 192.152 371.745C191.187 372.021 190.789 372.634 189.697 372.634" stroke="#036631" stroke-width="8" stroke-linecap="round"/>
<path d="M173.121 385.72C172.138 380.368 167.166 385.528 164.624 386.592C161.895 387.734 161.479 390.633 162.362 393.28" stroke="#036631" stroke-width="8" stroke-linecap="round"/>
<path d="M174.866 390.081C174.866 388.943 174.435 386.758 175.739 386.075C177.549 385.127 180.639 385.72 182.588 385.72C184.667 385.72 186.746 385.72 188.824 385.72C190.162 385.72 190.34 386.17 191.442 386.721C192.87 387.436 192.314 389.558 192.314 390.938C192.314 392.482 189.419 392.699 188.243 392.699" stroke="#036631" stroke-width="8" stroke-linecap="round"/>
<path d="M222.285 405.494C222.285 395.251 222.575 385.177 222.575 374.944C222.575 372.439 222.226 369.638 220.976 367.416C219.115 364.107 214.6 362.456 211.073 362.456C206.979 362.456 206 364.472 206 368.401C206 370.396 208.229 370.984 208.908 372.343" stroke="#036631" stroke-width="8" stroke-linecap="round"/>
<path d="M223.157 372.343C222.664 369.818 222.286 366.927 224.417 365.202C226.215 363.747 228.285 363.031 230.588 362.617C232.927 362.198 236.182 361.699 238.569 362.23C241.212 362.817 240.314 367.467 240.314 369.435C240.314 369.788 240.511 371.643 240.152 371.745C239.187 372.021 238.789 372.634 237.697 372.634" stroke="#036631" stroke-width="8" stroke-linecap="round"/>
<path d="M221.121 385.72C220.138 380.368 215.166 385.528 212.624 386.592C209.895 387.734 209.479 390.633 210.362 393.28" stroke="#036631" stroke-width="8" stroke-linecap="round"/>
<path d="M222.866 390.081C222.866 388.943 222.435 386.758 223.739 386.075C225.549 385.127 228.639 385.72 230.588 385.72C232.667 385.72 234.746 385.72 236.824 385.72C238.162 385.72 238.34 386.17 239.442 386.721C240.87 387.436 240.314 389.558 240.314 390.938C240.314 392.482 237.419 392.699 236.243 392.699" stroke="#036631" stroke-width="8" stroke-linecap="round"/>
<path d="M270.285 408.494C270.285 398.251 270.575 388.177 270.575 377.944C270.575 375.439 270.226 372.638 268.976 370.416C267.115 367.107 262.6 365.456 259.073 365.456C254.979 365.456 254 367.472 254 371.401C254 373.396 256.229 373.984 256.908 375.343" stroke="#036631" stroke-width="8" stroke-linecap="round"/>
<path d="M271.157 375.343C270.664 372.818 270.286 369.927 272.417 368.202C274.215 366.747 276.285 366.031 278.588 365.617C280.927 365.198 284.182 364.699 286.569 365.23C289.212 365.817 288.314 370.467 288.314 372.435C288.314 372.788 288.511 374.643 288.152 374.745C287.187 375.021 286.789 375.634 285.697 375.634" stroke="#036631" stroke-width="8" stroke-linecap="round"/>
<path d="M269.121 388.72C268.138 383.368 263.166 388.528 260.624 389.592C257.895 390.734 257.479 393.633 258.362 396.28" stroke="#036631" stroke-width="8" stroke-linecap="round"/>
<path d="M270.866 393.081C270.866 391.943 270.435 389.758 271.739 389.075C273.549 388.127 276.639 388.72 278.588 388.72C280.667 388.72 282.746 388.72 284.824 388.72C286.162 388.72 286.34 389.17 287.442 389.721C288.87 390.436 288.314 392.558 288.314 393.938C288.314 395.482 285.419 395.699 284.243 395.699" stroke="#036631" stroke-width="8" stroke-linecap="round"/>
<path d="M318.285 405.494C318.285 395.251 318.575 385.177 318.575 374.944C318.575 372.439 318.226 369.638 316.976 367.416C315.115 364.107 310.6 362.456 307.073 362.456C302.979 362.456 302 364.472 302 368.401C302 370.396 304.229 370.984 304.908 372.343" stroke="#036631" stroke-width="8" stroke-linecap="round"/>
<path d="M319.157 372.343C318.664 369.818 318.286 366.927 320.417 365.202C322.215 363.747 324.285 363.031 326.588 362.617C328.927 362.198 332.182 361.699 334.569 362.23C337.212 362.817 336.314 367.467 336.314 369.435C336.314 369.788 336.511 371.643 336.152 371.745C335.187 372.021 334.789 372.634 333.697 372.634" stroke="#036631" stroke-width="8" stroke-linecap="round"/>
<path d="M317.121 385.72C316.138 380.368 311.166 385.528 308.624 386.592C305.895 387.734 305.479 390.633 306.362 393.28" stroke="#036631" stroke-width="8" stroke-linecap="round"/>
<path d="M318.866 390.081C318.866 388.943 318.435 386.758 319.739 386.075C321.549 385.127 324.639 385.72 326.588 385.72C328.667 385.72 330.746 385.72 332.824 385.72C334.162 385.72 334.34 386.17 335.442 386.721C336.87 387.436 336.314 389.558 336.314 390.938C336.314 392.482 333.419 392.699 332.243 392.699" stroke="#036631" stroke-width="8" stroke-linecap="round"/>
<path d="M362.285 407.494C362.285 397.251 362.575 387.177 362.575 376.944C362.575 374.439 362.226 371.638 360.976 369.416C359.115 366.107 354.6 364.456 351.073 364.456C346.979 364.456 346 366.472 346 370.401C346 372.396 348.229 372.984 348.908 374.343" stroke="#036631" stroke-width="8" stroke-linecap="round"/>
<path d="M363.157 374.343C362.664 371.818 362.286 368.927 364.417 367.202C366.215 365.747 368.285 365.031 370.588 364.617C372.927 364.198 376.182 363.699 378.569 364.23C381.212 364.817 380.314 369.467 380.314 371.435C380.314 371.788 380.511 373.643 380.152 373.745C379.187 374.021 378.789 374.634 377.697 374.634" stroke="#036631" stroke-width="8" stroke-linecap="round"/>
<path d="M361.121 387.72C360.138 382.368 355.166 387.528 352.624 388.592C349.895 389.734 349.479 392.633 350.362 395.28" stroke="#036631" stroke-width="8" stroke-linecap="round"/>
<path d="M362.866 392.081C362.866 390.943 362.435 388.758 363.739 388.075C365.549 387.127 368.639 387.72 370.588 387.72C372.667 387.72 374.746 387.72 376.824 387.72C378.162 387.72 378.34 388.17 379.442 388.721C380.87 389.436 380.314 391.558 380.314 392.938C380.314 394.482 377.419 394.699 376.243 394.699" stroke="#036631" stroke-width="8" stroke-linecap="round"/>
<path d="M451.285 397.494C451.285 387.251 451.575 377.177 451.575 366.944C451.575 364.439 451.226 361.638 449.976 359.416C448.115 356.107 443.6 354.456 440.073 354.456C435.979 354.456 435 356.472 435 360.401C435 362.396 437.229 362.984 437.908 364.343" stroke="#036631" stroke-width="8" stroke-linecap="round"/>
<path d="M452.157 364.343C451.664 361.818 451.286 358.927 453.417 357.202C455.215 355.747 457.285 355.031 459.588 354.617C461.927 354.198 465.182 353.699 467.569 354.23C470.212 354.817 469.314 359.467 469.314 361.435C469.314 361.788 469.511 363.643 469.152 363.745C468.187 364.021 467.789 364.634 466.697 364.634" stroke="#036631" stroke-width="8" stroke-linecap="round"/>
<path d="M450.121 377.72C449.138 372.368 444.166 377.528 441.624 378.592C438.895 379.734 438.479 382.633 439.362 385.28" stroke="#036631" stroke-width="8" stroke-linecap="round"/>
<path d="M451.866 382.081C451.866 380.943 451.435 378.758 452.739 378.075C454.549 377.127 457.639 377.72 459.588 377.72C461.667 377.72 463.746 377.72 465.824 377.72C467.162 377.72 467.34 378.17 468.442 378.721C469.87 379.436 469.314 381.558 469.314 382.938C469.314 384.482 466.419 384.699 465.243 384.699" stroke="#036631" stroke-width="8" stroke-linecap="round"/>
<path d="M412.285 406.494C412.285 396.251 412.575 386.177 412.575 375.944C412.575 373.439 412.226 370.638 410.976 368.416C409.115 365.107 404.6 363.456 401.073 363.456C396.979 363.456 396 365.472 396 369.401C396 371.396 398.229 371.984 398.908 373.343" stroke="#036631" stroke-width="8" stroke-linecap="round"/>
<path d="M413.157 373.343C412.664 370.818 412.286 367.927 414.417 366.202C416.215 364.747 418.285 364.031 420.588 363.617C422.927 363.198 426.182 362.699 428.569 363.23C431.212 363.817 430.314 368.467 430.314 370.435C430.314 370.788 430.511 372.643 430.152 372.745C429.187 373.021 428.789 373.634 427.697 373.634" stroke="#036631" stroke-width="8" stroke-linecap="round"/>
<path d="M411.121 386.72C410.138 381.368 405.166 386.528 402.624 387.592C399.895 388.734 399.479 391.633 400.362 394.28" stroke="#036631" stroke-width="8" stroke-linecap="round"/>
<path d="M412.866 391.081C412.866 389.943 412.435 387.758 413.739 387.075C415.549 386.127 418.639 386.72 420.588 386.72C422.667 386.72 424.746 386.72 426.824 386.72C428.162 386.72 428.34 387.17 429.442 387.721C430.87 388.436 430.314 390.558 430.314 391.938C430.314 393.482 427.419 393.699 426.243 393.699" stroke="#036631" stroke-width="8" stroke-linecap="round"/>
<path d="M130.285 47.4937C130.285 37.2509 130.575 27.1774 130.575 16.944C130.575 14.4392 130.226 11.6377 128.976 9.41561C127.115 6.10749 122.6 4.45593 119.073 4.45593C114.979 4.45593 114 6.47247 114 10.4011C114 12.3956 116.229 12.9844 116.908 14.343" stroke="#036631" stroke-width="8" stroke-linecap="round"/>
<path d="M131.157 14.343C130.664 11.8181 130.286 8.92718 132.417 7.20232C134.215 5.74657 136.285 5.03084 138.588 4.61747C140.927 4.19765 144.182 3.6992 146.569 4.22974C149.212 4.81703 148.314 9.46667 148.314 11.435C148.314 11.7884 148.511 13.6427 148.152 13.7452C147.187 14.0212 146.789 14.6338 145.697 14.6338" stroke="#036631" stroke-width="8" stroke-linecap="round"/>
<path d="M129.121 27.7196C128.138 22.3683 123.166 27.5278 120.624 28.592C117.895 29.7341 117.479 32.6328 118.362 35.2802" stroke="#036631" stroke-width="8" stroke-linecap="round"/>
<path d="M130.866 32.0815C130.866 30.9425 130.435 28.7579 131.739 28.075C133.549 27.1269 136.639 27.7195 138.588 27.7195C140.667 27.7195 142.746 27.7195 144.824 27.7195C146.162 27.7195 146.34 28.1703 147.442 28.7212C148.87 29.4355 148.314 31.5578 148.314 32.9377C148.314 34.4815 145.419 34.6986 144.243 34.6986" stroke="#036631" stroke-width="8" stroke-linecap="round"/>
<path d="M62.2845 246.494C62.2845 236.251 62.5753 226.177 62.5753 215.944C62.5753 213.439 62.2259 210.638 60.976 208.416C59.1151 205.107 54.6002 203.456 51.0728 203.456C46.979 203.456 46 205.472 46 209.401C46 211.396 48.2287 211.984 48.908 213.343" stroke="#036631" stroke-width="8" stroke-linecap="round"/>
<path d="M63.1571 213.343C62.6644 210.818 62.2865 207.927 64.4172 206.202C66.2154 204.747 68.2855 204.031 70.5885 203.617C72.9275 203.198 76.1818 202.699 78.5692 203.23C81.212 203.817 80.314 208.467 80.314 210.435C80.314 210.788 80.5114 212.643 80.1524 212.745C79.1865 213.021 78.789 213.634 77.6968 213.634" stroke="#036631" stroke-width="8" stroke-linecap="round"/>
<path d="M61.1214 226.72C60.1385 221.368 55.1659 226.528 52.6237 227.592C49.8952 228.734 49.4795 231.633 50.3619 234.28" stroke="#036631" stroke-width="8" stroke-linecap="round"/>
<path d="M62.8662 231.081C62.8662 229.943 62.4349 227.758 63.7386 227.075C65.5486 226.127 68.6389 226.72 70.5885 226.72C72.6671 226.72 74.7458 226.72 76.8244 226.72C78.1622 226.72 78.3399 227.17 79.4416 227.721C80.8703 228.436 80.314 230.558 80.314 231.938C80.314 233.482 77.4194 233.699 76.2428 233.699" stroke="#036631" stroke-width="8" stroke-linecap="round"/>
<path d="M60.2845 307.494C60.2845 297.251 60.5753 287.177 60.5753 276.944C60.5753 274.439 60.2259 271.638 58.976 269.416C57.1151 266.107 52.6002 264.456 49.0728 264.456C44.979 264.456 44 266.472 44 270.401C44 272.396 46.2287 272.984 46.908 274.343" stroke="#036631" stroke-width="8" stroke-linecap="round"/>
<path d="M61.1571 274.343C60.6644 271.818 60.2865 268.927 62.4172 267.202C64.2154 265.747 66.2855 265.031 68.5885 264.617C70.9275 264.198 74.1818 263.699 76.5692 264.23C79.212 264.817 78.314 269.467 78.314 271.435C78.314 271.788 78.5114 273.643 78.1524 273.745C77.1865 274.021 76.789 274.634 75.6968 274.634" stroke="#036631" stroke-width="8" stroke-linecap="round"/>
<path d="M59.1214 287.72C58.1385 282.368 53.1659 287.528 50.6237 288.592C47.8952 289.734 47.4795 292.633 48.3619 295.28" stroke="#036631" stroke-width="8" stroke-linecap="round"/>
<path d="M60.8662 292.081C60.8662 290.943 60.4349 288.758 61.7386 288.075C63.5486 287.127 66.6389 287.72 68.5885 287.72C70.6671 287.72 72.7458 287.72 74.8244 287.72C76.1622 287.72 76.3399 288.17 77.4416 288.721C78.8703 289.436 78.314 291.558 78.314 292.938C78.314 294.482 75.4194 294.699 74.2428 294.699" stroke="#036631" stroke-width="8" stroke-linecap="round"/>
<path d="M60.2845 187.494C60.2845 177.251 60.5753 167.177 60.5753 156.944C60.5753 154.439 60.2259 151.638 58.976 149.416C57.1151 146.107 52.6002 144.456 49.0728 144.456C44.979 144.456 44 146.472 44 150.401C44 152.396 46.2287 152.984 46.908 154.343" stroke="#036631" stroke-width="8" stroke-linecap="round"/>
<path d="M61.1571 154.343C60.6644 151.818 60.2865 148.927 62.4172 147.202C64.2154 145.747 66.2855 145.031 68.5885 144.617C70.9275 144.198 74.1818 143.699 76.5692 144.23C79.212 144.817 78.314 149.467 78.314 151.435C78.314 151.788 78.5114 153.643 78.1524 153.745C77.1865 154.021 76.789 154.634 75.6968 154.634" stroke="#036631" stroke-width="8" stroke-linecap="round"/>
<path d="M59.1214 167.72C58.1385 162.368 53.1659 167.528 50.6237 168.592C47.8952 169.734 47.4795 172.633 48.3619 175.28" stroke="#036631" stroke-width="8" stroke-linecap="round"/>
<path d="M60.8662 172.081C60.8662 170.943 60.4349 168.758 61.7386 168.075C63.5486 167.127 66.6389 167.72 68.5885 167.72C70.6671 167.72 72.7458 167.72 74.8244 167.72C76.1622 167.72 76.3399 168.17 77.4416 168.721C78.8703 169.436 78.314 171.558 78.314 172.938C78.314 174.482 75.4194 174.699 74.2428 174.699" stroke="#036631" stroke-width="8" stroke-linecap="round"/>
<path d="M60.2845 363.494C60.2845 353.251 60.5753 343.177 60.5753 332.944C60.5753 330.439 60.2259 327.638 58.976 325.416C57.1151 322.107 52.6002 320.456 49.0728 320.456C44.979 320.456 44 322.472 44 326.401C44 328.396 46.2287 328.984 46.908 330.343" stroke="#036631" stroke-width="8" stroke-linecap="round"/>
<path d="M61.1571 330.343C60.6644 327.818 60.2865 324.927 62.4172 323.202C64.2154 321.747 66.2855 321.031 68.5885 320.617C70.9275 320.198 74.1818 319.699 76.5692 320.23C79.212 320.817 78.314 325.467 78.314 327.435C78.314 327.788 78.5114 329.643 78.1524 329.745C77.1865 330.021 76.789 330.634 75.6968 330.634" stroke="#036631" stroke-width="8" stroke-linecap="round"/>
<path d="M59.1214 343.72C58.1385 338.368 53.1659 343.528 50.6237 344.592C47.8952 345.734 47.4795 348.633 48.3619 351.28" stroke="#036631" stroke-width="8" stroke-linecap="round"/>
<path d="M60.8662 348.081C60.8662 346.943 60.4349 344.758 61.7386 344.075C63.5486 343.127 66.6389 343.72 68.5885 343.72C70.6671 343.72 72.7458 343.72 74.8244 343.72C76.1622 343.72 76.3399 344.17 77.4416 344.721C78.8703 345.436 78.314 347.558 78.314 348.938C78.314 350.482 75.4194 350.699 74.2428 350.699" stroke="#036631" stroke-width="8" stroke-linecap="round"/>
<path d="M57.2845 127.494C57.2845 117.251 57.5753 107.177 57.5753 96.944C57.5753 94.4392 57.2259 91.6377 55.976 89.4156C54.1151 86.1075 49.6002 84.4559 46.0728 84.4559C41.979 84.4559 41 86.4725 41 90.4011C41 92.3956 43.2287 92.9844 43.908 94.343" stroke="#036631" stroke-width="8" stroke-linecap="round"/>
<path d="M58.1571 94.343C57.6644 91.8181 57.2865 88.9272 59.4172 87.2023C61.2154 85.7466 63.2855 85.0308 65.5885 84.6175C67.9275 84.1977 71.1818 83.6992 73.5692 84.2297C76.212 84.817 75.314 89.4667 75.314 91.435C75.314 91.7884 75.5114 93.6427 75.1524 93.7452C74.1865 94.0212 73.789 94.6338 72.6968 94.6338" stroke="#036631" stroke-width="8" stroke-linecap="round"/>
<path d="M56.1214 107.72C55.1385 102.368 50.1659 107.528 47.6237 108.592C44.8952 109.734 44.4795 112.633 45.3619 115.28" stroke="#036631" stroke-width="8" stroke-linecap="round"/>
<path d="M57.8662 112.081C57.8662 110.943 57.4349 108.758 58.7386 108.075C60.5486 107.127 63.6389 107.72 65.5885 107.72C67.6671 107.72 69.7458 107.72 71.8244 107.72C73.1622 107.72 73.3399 108.17 74.4416 108.721C75.8703 109.436 75.314 111.558 75.314 112.938C75.314 114.482 72.4194 114.699 71.2428 114.699" stroke="#036631" stroke-width="8" stroke-linecap="round"/>
<path d="M64.2845 69.4937C64.2845 59.2509 64.5753 49.1774 64.5753 38.944C64.5753 36.4392 64.2259 33.6377 62.976 31.4156C61.1151 28.1075 56.6002 26.4559 53.0728 26.4559C48.979 26.4559 48 28.4725 48 32.4011C48 34.3956 50.2287 34.9844 50.908 36.343" stroke="#036631" stroke-width="8" stroke-linecap="round"/>
<path d="M65.1571 36.343C64.6644 33.8181 64.2865 30.9272 66.4172 29.2023C68.2154 27.7466 70.2855 27.0308 72.5885 26.6175C74.9275 26.1977 78.1818 25.6992 80.5692 26.2297C83.212 26.817 82.314 31.4667 82.314 33.435C82.314 33.7884 82.5114 35.6427 82.1524 35.7452C81.1865 36.0212 80.789 36.6338 79.6968 36.6338" stroke="#036631" stroke-width="8" stroke-linecap="round"/>
<path d="M63.1214 49.7196C62.1385 44.3683 57.1659 49.5278 54.6237 50.592C51.8952 51.7341 51.4795 54.6328 52.3619 57.2802" stroke="#036631" stroke-width="8" stroke-linecap="round"/>
<path d="M64.8662 54.0815C64.8662 52.9425 64.4349 50.7579 65.7386 50.075C67.5486 49.1269 70.6389 49.7195 72.5885 49.7195C74.6671 49.7195 76.7458 49.7195 78.8244 49.7195C80.1622 49.7195 80.3399 50.1703 81.4416 50.7212C82.8703 51.4355 82.314 53.5578 82.314 54.9377C82.314 56.4815 79.4194 56.6986 78.2428 56.6986" stroke="#036631" stroke-width="8" stroke-linecap="round"/>
<path d="M434.285 139.494C434.285 129.251 434.575 119.177 434.575 108.944C434.575 106.439 434.226 103.638 432.976 101.416C431.115 98.1075 426.6 96.4559 423.073 96.4559C418.979 96.4559 418 98.4725 418 102.401C418 104.396 420.229 104.984 420.908 106.343" stroke="#036631" stroke-width="8" stroke-linecap="round"/>
<path d="M435.157 106.343C434.664 103.818 434.286 100.927 436.417 99.2023C438.215 97.7466 440.285 97.0308 442.588 96.6175C444.927 96.1977 448.182 95.6992 450.569 96.2297C453.212 96.817 452.314 101.467 452.314 103.435C452.314 103.788 452.511 105.643 452.152 105.745C451.187 106.021 450.789 106.634 449.697 106.634" stroke="#036631" stroke-width="8" stroke-linecap="round"/>
<path d="M433.121 119.72C432.138 114.368 427.166 119.528 424.624 120.592C421.895 121.734 421.479 124.633 422.362 127.28" stroke="#036631" stroke-width="8" stroke-linecap="round"/>
<path d="M434.866 124.081C434.866 122.943 434.435 120.758 435.739 120.075C437.549 119.127 440.639 119.72 442.588 119.72C444.667 119.72 446.746 119.72 448.824 119.72C450.162 119.72 450.34 120.17 451.442 120.721C452.87 121.436 452.314 123.558 452.314 124.938C452.314 126.482 449.419 126.699 448.243 126.699" stroke="#036631" stroke-width="8" stroke-linecap="round"/>
<path d="M183.285 79.4937C183.285 69.2509 183.575 59.1774 183.575 48.944C183.575 46.4392 183.226 43.6377 181.976 41.4156C180.115 38.1075 175.6 36.4559 172.073 36.4559C167.979 36.4559 167 38.4725 167 42.4011C167 44.3956 169.229 44.9844 169.908 46.343" stroke="#036631" stroke-width="8" stroke-linecap="round"/>
<path d="M184.157 46.343C183.664 43.8181 183.286 40.9272 185.417 39.2023C187.215 37.7466 189.285 37.0308 191.588 36.6175C193.927 36.1977 197.182 35.6992 199.569 36.2297C202.212 36.817 201.314 41.4667 201.314 43.435C201.314 43.7884 201.511 45.6427 201.152 45.7452C200.187 46.0212 199.789 46.6338 198.697 46.6338" stroke="#036631" stroke-width="8" stroke-linecap="round"/>
<path d="M182.121 59.7196C181.138 54.3683 176.166 59.5278 173.624 60.592C170.895 61.7341 170.479 64.6328 171.362 67.2802" stroke="#036631" stroke-width="8" stroke-linecap="round"/>
<path d="M183.866 64.0815C183.866 62.9425 183.435 60.7579 184.739 60.075C186.549 59.1269 189.639 59.7195 191.588 59.7195C193.667 59.7195 195.746 59.7195 197.824 59.7195C199.162 59.7195 199.34 60.1703 200.442 60.7212C201.87 61.4355 201.314 63.5578 201.314 64.9377C201.314 66.4815 198.419 66.6986 197.243 66.6986" stroke="#036631" stroke-width="8" stroke-linecap="round"/>
<path d="M196.285 134.494C196.285 124.251 196.575 114.177 196.575 103.944C196.575 101.439 196.226 98.6377 194.976 96.4156C193.115 93.1075 188.6 91.4559 185.073 91.4559C180.979 91.4559 180 93.4725 180 97.4011C180 99.3956 182.229 99.9844 182.908 101.343" stroke="#036631" stroke-width="8" stroke-linecap="round"/>
<path d="M197.157 101.343C196.664 98.8181 196.286 95.9272 198.417 94.2023C200.215 92.7466 202.285 92.0308 204.588 91.6175C206.927 91.1977 210.182 90.6992 212.569 91.2297C215.212 91.817 214.314 96.4667 214.314 98.435C214.314 98.7884 214.511 100.643 214.152 100.745C213.187 101.021 212.789 101.634 211.697 101.634" stroke="#036631" stroke-width="8" stroke-linecap="round"/>
<path d="M195.121 114.72C194.138 109.368 189.166 114.528 186.624 115.592C183.895 116.734 183.479 119.633 184.362 122.28" stroke="#036631" stroke-width="8" stroke-linecap="round"/>
<path d="M196.866 119.081C196.866 117.943 196.435 115.758 197.739 115.075C199.549 114.127 202.639 114.72 204.588 114.72C206.667 114.72 208.746 114.72 210.824 114.72C212.162 114.72 212.34 115.17 213.442 115.721C214.87 116.436 214.314 118.558 214.314 119.938C214.314 121.482 211.419 121.699 210.243 121.699" stroke="#036631" stroke-width="8" stroke-linecap="round"/>
<path d="M253.285 138.494C253.285 128.251 253.575 118.177 253.575 107.944C253.575 105.439 253.226 102.638 251.976 100.416C250.115 97.1075 245.6 95.4559 242.073 95.4559C237.979 95.4559 237 97.4725 237 101.401C237 103.396 239.229 103.984 239.908 105.343" stroke="#036631" stroke-width="8" stroke-linecap="round"/>
<path d="M254.157 105.343C253.664 102.818 253.286 99.9272 255.417 98.2023C257.215 96.7466 259.285 96.0308 261.588 95.6175C263.927 95.1977 267.182 94.6992 269.569 95.2297C272.212 95.817 271.314 100.467 271.314 102.435C271.314 102.788 271.511 104.643 271.152 104.745C270.187 105.021 269.789 105.634 268.697 105.634" stroke="#036631" stroke-width="8" stroke-linecap="round"/>
<path d="M252.121 118.72C251.138 113.368 246.166 118.528 243.624 119.592C240.895 120.734 240.479 123.633 241.362 126.28" stroke="#036631" stroke-width="8" stroke-linecap="round"/>
<path d="M253.866 123.081C253.866 121.943 253.435 119.758 254.739 119.075C256.549 118.127 259.639 118.72 261.588 118.72C263.667 118.72 265.746 118.72 267.824 118.72C269.162 118.72 269.34 119.17 270.442 119.721C271.87 120.436 271.314 122.558 271.314 123.938C271.314 125.482 268.419 125.699 267.243 125.699" stroke="#036631" stroke-width="8" stroke-linecap="round"/>
<path d="M297.285 134.494C297.285 124.251 297.575 114.177 297.575 103.944C297.575 101.439 297.226 98.6377 295.976 96.4156C294.115 93.1075 289.6 91.4559 286.073 91.4559C281.979 91.4559 281 93.4725 281 97.4011C281 99.3956 283.229 99.9844 283.908 101.343" stroke="#036631" stroke-width="8" stroke-linecap="round"/>
<path d="M298.157 101.343C297.664 98.8181 297.286 95.9272 299.417 94.2023C301.215 92.7466 303.285 92.0308 305.588 91.6175C307.927 91.1977 311.182 90.6992 313.569 91.2297C316.212 91.817 315.314 96.4667 315.314 98.435C315.314 98.7884 315.511 100.643 315.152 100.745C314.187 101.021 313.789 101.634 312.697 101.634" stroke="#036631" stroke-width="8" stroke-linecap="round"/>
<path d="M296.121 114.72C295.138 109.368 290.166 114.528 287.624 115.592C284.895 116.734 284.479 119.633 285.362 122.28" stroke="#036631" stroke-width="8" stroke-linecap="round"/>
<path d="M297.866 119.081C297.866 117.943 297.435 115.758 298.739 115.075C300.549 114.127 303.639 114.72 305.588 114.72C307.667 114.72 309.746 114.72 311.824 114.72C313.162 114.72 313.34 115.17 314.442 115.721C315.87 116.436 315.314 118.558 315.314 119.938C315.314 121.482 312.419 121.699 311.243 121.699" stroke="#036631" stroke-width="8" stroke-linecap="round"/>
<path d="M338.285 140.494C338.285 130.251 338.575 120.177 338.575 109.944C338.575 107.439 338.226 104.638 336.976 102.416C335.115 99.1075 330.6 97.4559 327.073 97.4559C322.979 97.4559 322 99.4725 322 103.401C322 105.396 324.229 105.984 324.908 107.343" stroke="#036631" stroke-width="8" stroke-linecap="round"/>
<path d="M339.157 107.343C338.664 104.818 338.286 101.927 340.417 100.202C342.215 98.7466 344.285 98.0308 346.588 97.6175C348.927 97.1977 352.182 96.6992 354.569 97.2297C357.212 97.817 356.314 102.467 356.314 104.435C356.314 104.788 356.511 106.643 356.152 106.745C355.187 107.021 354.789 107.634 353.697 107.634" stroke="#036631" stroke-width="8" stroke-linecap="round"/>
<path d="M337.121 120.72C336.138 115.368 331.166 120.528 328.624 121.592C325.895 122.734 325.479 125.633 326.362 128.28" stroke="#036631" stroke-width="8" stroke-linecap="round"/>
<path d="M338.866 125.081C338.866 123.943 338.435 121.758 339.739 121.075C341.549 120.127 344.639 120.72 346.588 120.72C348.667 120.72 350.746 120.72 352.824 120.72C354.162 120.72 354.34 121.17 355.442 121.721C356.87 122.436 356.314 124.558 356.314 125.938C356.314 127.482 353.419 127.699 352.243 127.699" stroke="#036631" stroke-width="8" stroke-linecap="round"/>
<path d="M387.285 138.494C387.285 128.251 387.575 118.177 387.575 107.944C387.575 105.439 387.226 102.638 385.976 100.416C384.115 97.1075 379.6 95.4559 376.073 95.4559C371.979 95.4559 371 97.4725 371 101.401C371 103.396 373.229 103.984 373.908 105.343" stroke="#036631" stroke-width="8" stroke-linecap="round"/>
<path d="M388.157 105.343C387.664 102.818 387.286 99.9272 389.417 98.2023C391.215 96.7466 393.285 96.0308 395.588 95.6175C397.927 95.1977 401.182 94.6992 403.569 95.2297C406.212 95.817 405.314 100.467 405.314 102.435C405.314 102.788 405.511 104.643 405.152 104.745C404.187 105.021 403.789 105.634 402.697 105.634" stroke="#036631" stroke-width="8" stroke-linecap="round"/>
<path d="M386.121 118.72C385.138 113.368 380.166 118.528 377.624 119.592C374.895 120.734 374.479 123.633 375.362 126.28" stroke="#036631" stroke-width="8" stroke-linecap="round"/>
<path d="M387.866 123.081C387.866 121.943 387.435 119.758 388.739 119.075C390.549 118.127 393.639 118.72 395.588 118.72C397.667 118.72 399.746 118.72 401.824 118.72C403.162 118.72 403.34 119.17 404.442 119.721C405.87 120.436 405.314 122.558 405.314 123.938C405.314 125.482 402.419 125.699 401.243 125.699" stroke="#036631" stroke-width="8" stroke-linecap="round"/>
<path d="M466.285 182.494C466.285 172.251 466.575 162.177 466.575 151.944C466.575 149.439 466.226 146.638 464.976 144.416C463.115 141.107 458.6 139.456 455.073 139.456C450.979 139.456 450 141.472 450 145.401C450 147.396 452.229 147.984 452.908 149.343" stroke="#036631" stroke-width="8" stroke-linecap="round"/>
<path d="M467.157 149.343C466.664 146.818 466.286 143.927 468.417 142.202C470.215 140.747 472.285 140.031 474.588 139.617C476.927 139.198 480.182 138.699 482.569 139.23C485.212 139.817 484.314 144.467 484.314 146.435C484.314 146.788 484.511 148.643 484.152 148.745C483.187 149.021 482.789 149.634 481.697 149.634" stroke="#036631" stroke-width="8" stroke-linecap="round"/>
<path d="M465.121 162.72C464.138 157.368 459.166 162.528 456.624 163.592C453.895 164.734 453.479 167.633 454.362 170.28" stroke="#036631" stroke-width="8" stroke-linecap="round"/>
<path d="M466.866 167.081C466.866 165.943 466.435 163.758 467.739 163.075C469.549 162.127 472.639 162.72 474.588 162.72C476.667 162.72 478.746 162.72 480.824 162.72C482.162 162.72 482.34 163.17 483.442 163.721C484.87 164.436 484.314 166.558 484.314 167.938C484.314 169.482 481.419 169.699 480.243 169.699" stroke="#036631" stroke-width="8" stroke-linecap="round"/>
<path d="M466.285 237.494C466.285 227.251 466.575 217.177 466.575 206.944C466.575 204.439 466.226 201.638 464.976 199.416C463.115 196.107 458.6 194.456 455.073 194.456C450.979 194.456 450 196.472 450 200.401C450 202.396 452.229 202.984 452.908 204.343" stroke="#036631" stroke-width="8" stroke-linecap="round"/>
<path d="M467.157 204.343C466.664 201.818 466.286 198.927 468.417 197.202C470.215 195.747 472.285 195.031 474.588 194.617C476.927 194.198 480.182 193.699 482.569 194.23C485.212 194.817 484.314 199.467 484.314 201.435C484.314 201.788 484.511 203.643 484.152 203.745C483.187 204.021 482.789 204.634 481.697 204.634" stroke="#036631" stroke-width="8" stroke-linecap="round"/>
<path d="M465.121 217.72C464.138 212.368 459.166 217.528 456.624 218.592C453.895 219.734 453.479 222.633 454.362 225.28" stroke="#036631" stroke-width="8" stroke-linecap="round"/>
<path d="M466.866 222.081C466.866 220.943 466.435 218.758 467.739 218.075C469.549 217.127 472.639 217.72 474.588 217.72C476.667 217.72 478.746 217.72 480.824 217.72C482.162 217.72 482.34 218.17 483.442 218.721C484.87 219.436 484.314 221.558 484.314 222.938C484.314 224.482 481.419 224.699 480.243 224.699" stroke="#036631" stroke-width="8" stroke-linecap="round"/>
<path d="M462.285 348.494C462.285 338.251 462.575 328.177 462.575 317.944C462.575 315.439 462.226 312.638 460.976 310.416C459.115 307.107 454.6 305.456 451.073 305.456C446.979 305.456 446 307.472 446 311.401C446 313.396 448.229 313.984 448.908 315.343" stroke="#036631" stroke-width="8" stroke-linecap="round"/>
<path d="M463.157 315.343C462.664 312.818 462.286 309.927 464.417 308.202C466.215 306.747 468.285 306.031 470.588 305.617C472.927 305.198 476.182 304.699 478.569 305.23C481.212 305.817 480.314 310.467 480.314 312.435C480.314 312.788 480.511 314.643 480.152 314.745C479.187 315.021 478.789 315.634 477.697 315.634" stroke="#036631" stroke-width="8" stroke-linecap="round"/>
<path d="M461.121 328.72C460.138 323.368 455.166 328.528 452.624 329.592C449.895 330.734 449.479 333.633 450.362 336.28" stroke="#036631" stroke-width="8" stroke-linecap="round"/>
<path d="M462.866 333.081C462.866 331.943 462.435 329.758 463.739 329.075C465.549 328.127 468.639 328.72 470.588 328.72C472.667 328.72 474.746 328.72 476.824 328.72C478.162 328.72 478.34 329.17 479.442 329.721C480.87 330.436 480.314 332.558 480.314 333.938C480.314 335.482 477.419 335.699 476.243 335.699" stroke="#036631" stroke-width="8" stroke-linecap="round"/>
<path d="M458.285 293.494C458.285 283.251 458.575 273.177 458.575 262.944C458.575 260.439 458.226 257.638 456.976 255.416C455.115 252.107 450.6 250.456 447.073 250.456C442.979 250.456 442 252.472 442 256.401C442 258.396 444.229 258.984 444.908 260.343" stroke="#036631" stroke-width="8" stroke-linecap="round"/>
<path d="M459.157 260.343C458.664 257.818 458.286 254.927 460.417 253.202C462.215 251.747 464.285 251.031 466.588 250.617C468.927 250.198 472.182 249.699 474.569 250.23C477.212 250.817 476.314 255.467 476.314 257.435C476.314 257.788 476.511 259.643 476.152 259.745C475.187 260.021 474.789 260.634 473.697 260.634" stroke="#036631" stroke-width="8" stroke-linecap="round"/>
<path d="M457.121 273.72C456.138 268.368 451.166 273.528 448.624 274.592C445.895 275.734 445.479 278.633 446.362 281.28" stroke="#036631" stroke-width="8" stroke-linecap="round"/>
<path d="M458.866 278.081C458.866 276.943 458.435 274.758 459.739 274.075C461.549 273.127 464.639 273.72 466.588 273.72C468.667 273.72 470.746 273.72 472.824 273.72C474.162 273.72 474.34 274.17 475.442 274.721C476.87 275.436 476.314 277.558 476.314 278.938C476.314 280.482 473.419 280.699 472.243 280.699" stroke="#036631" stroke-width="8" stroke-linecap="round"/>
<path d="M409.285 276.494C409.285 266.251 409.575 256.177 409.575 245.944C409.575 243.439 409.226 240.638 407.976 238.416C406.115 235.107 401.6 233.456 398.073 233.456C393.979 233.456 393 235.472 393 239.401C393 241.396 395.229 241.984 395.908 243.343" stroke="#036631" stroke-width="8" stroke-linecap="round"/>
<path d="M410.157 243.343C409.664 240.818 409.286 237.927 411.417 236.202C413.215 234.747 415.285 234.031 417.588 233.617C419.927 233.198 423.182 232.699 425.569 233.23C428.212 233.817 427.314 238.467 427.314 240.435C427.314 240.788 427.511 242.643 427.152 242.745C426.187 243.021 425.789 243.634 424.697 243.634" stroke="#036631" stroke-width="8" stroke-linecap="round"/>
<path d="M408.121 256.72C407.138 251.368 402.166 256.528 399.624 257.592C396.895 258.734 396.479 261.633 397.362 264.28" stroke="#036631" stroke-width="8" stroke-linecap="round"/>
<path d="M409.866 261.081C409.866 259.943 409.435 257.758 410.739 257.075C412.549 256.127 415.639 256.72 417.588 256.72C419.667 256.72 421.746 256.72 423.824 256.72C425.162 256.72 425.34 257.17 426.442 257.721C427.87 258.436 427.314 260.558 427.314 261.938C427.314 263.482 424.419 263.699 423.243 263.699" stroke="#036631" stroke-width="8" stroke-linecap="round"/>
<path d="M366.285 276.494C366.285 266.251 366.575 256.177 366.575 245.944C366.575 243.439 366.226 240.638 364.976 238.416C363.115 235.107 358.6 233.456 355.073 233.456C350.979 233.456 350 235.472 350 239.401C350 241.396 352.229 241.984 352.908 243.343" stroke="#036631" stroke-width="8" stroke-linecap="round"/>
<path d="M367.157 243.343C366.664 240.818 366.286 237.927 368.417 236.202C370.215 234.747 372.285 234.031 374.588 233.617C376.927 233.198 380.182 232.699 382.569 233.23C385.212 233.817 384.314 238.467 384.314 240.435C384.314 240.788 384.511 242.643 384.152 242.745C383.187 243.021 382.789 243.634 381.697 243.634" stroke="#036631" stroke-width="8" stroke-linecap="round"/>
<path d="M365.121 256.72C364.138 251.368 359.166 256.528 356.624 257.592C353.895 258.734 353.479 261.633 354.362 264.28" stroke="#036631" stroke-width="8" stroke-linecap="round"/>
<path d="M366.866 261.081C366.866 259.943 366.435 257.758 367.739 257.075C369.549 256.127 372.639 256.72 374.588 256.72C376.667 256.72 378.746 256.72 380.824 256.72C382.162 256.72 382.34 257.17 383.442 257.721C384.87 258.436 384.314 260.558 384.314 261.938C384.314 263.482 381.419 263.699 380.243 263.699" stroke="#036631" stroke-width="8" stroke-linecap="round"/>
<path d="M323.285 277.494C323.285 267.251 323.575 257.177 323.575 246.944C323.575 244.439 323.226 241.638 321.976 239.416C320.115 236.107 315.6 234.456 312.073 234.456C307.979 234.456 307 236.472 307 240.401C307 242.396 309.229 242.984 309.908 244.343" stroke="#036631" stroke-width="8" stroke-linecap="round"/>
<path d="M324.157 244.343C323.664 241.818 323.286 238.927 325.417 237.202C327.215 235.747 329.285 235.031 331.588 234.617C333.927 234.198 337.182 233.699 339.569 234.23C342.212 234.817 341.314 239.467 341.314 241.435C341.314 241.788 341.511 243.643 341.152 243.745C340.187 244.021 339.789 244.634 338.697 244.634" stroke="#036631" stroke-width="8" stroke-linecap="round"/>
<path d="M322.121 257.72C321.138 252.368 316.166 257.528 313.624 258.592C310.895 259.734 310.479 262.633 311.362 265.28" stroke="#036631" stroke-width="8" stroke-linecap="round"/>
<path d="M323.866 262.081C323.866 260.943 323.435 258.758 324.739 258.075C326.549 257.127 329.639 257.72 331.588 257.72C333.667 257.72 335.746 257.72 337.824 257.72C339.162 257.72 339.34 258.17 340.442 258.721C341.87 259.436 341.314 261.558 341.314 262.938C341.314 264.482 338.419 264.699 337.243 264.699" stroke="#036631" stroke-width="8" stroke-linecap="round"/>
<path d="M211.285 266.494C211.285 256.251 211.575 246.177 211.575 235.944C211.575 233.439 211.226 230.638 209.976 228.416C208.115 225.107 203.6 223.456 200.073 223.456C195.979 223.456 195 225.472 195 229.401C195 231.396 197.229 231.984 197.908 233.343" stroke="#036631" stroke-width="8" stroke-linecap="round"/>
<path d="M212.157 233.343C211.664 230.818 211.286 227.927 213.417 226.202C215.215 224.747 217.285 224.031 219.588 223.617C221.927 223.198 225.182 222.699 227.569 223.23C230.212 223.817 229.314 228.467 229.314 230.435C229.314 230.788 229.511 232.643 229.152 232.745C228.187 233.021 227.789 233.634 226.697 233.634" stroke="#036631" stroke-width="8" stroke-linecap="round"/>
<path d="M210.121 246.72C209.138 241.368 204.166 246.528 201.624 247.592C198.895 248.734 198.479 251.633 199.362 254.28" stroke="#036631" stroke-width="8" stroke-linecap="round"/>
<path d="M211.866 251.081C211.866 249.943 211.435 247.758 212.739 247.075C214.549 246.127 217.639 246.72 219.588 246.72C221.667 246.72 223.746 246.72 225.824 246.72C227.162 246.72 227.34 247.17 228.442 247.721C229.87 248.436 229.314 250.558 229.314 251.938C229.314 253.482 226.419 253.699 225.243 253.699" stroke="#036631" stroke-width="8" stroke-linecap="round"/>
<path d="M178.285 278.494C178.285 268.251 178.575 258.177 178.575 247.944C178.575 245.439 178.226 242.638 176.976 240.416C175.115 237.107 170.6 235.456 167.073 235.456C162.979 235.456 162 237.472 162 241.401C162 243.396 164.229 243.984 164.908 245.343" stroke="#036631" stroke-width="8" stroke-linecap="round"/>
<path d="M179.157 245.343C178.664 242.818 178.286 239.927 180.417 238.202C182.215 236.747 184.285 236.031 186.588 235.617C188.927 235.198 192.182 234.699 194.569 235.23C197.212 235.817 196.314 240.467 196.314 242.435C196.314 242.788 196.511 244.643 196.152 244.745C195.187 245.021 194.789 245.634 193.697 245.634" stroke="#036631" stroke-width="8" stroke-linecap="round"/>
<path d="M177.121 258.72C176.138 253.368 171.166 258.528 168.624 259.592C165.895 260.734 165.479 263.633 166.362 266.28" stroke="#036631" stroke-width="8" stroke-linecap="round"/>
<path d="M178.866 263.081C178.866 261.943 178.435 259.758 179.739 259.075C181.549 258.127 184.639 258.72 186.588 258.72C188.667 258.72 190.746 258.72 192.824 258.72C194.162 258.72 194.34 259.17 195.442 259.721C196.87 260.436 196.314 262.558 196.314 263.938C196.314 265.482 193.419 265.699 192.243 265.699" stroke="#036631" stroke-width="8" stroke-linecap="round"/>
<path d="M383.28 193.233C383.335 190.982 385.439 190.549 387.114 189.635C388.543 188.856 390.072 189.187 391.57 188.751C392.564 188.462 393.537 188.303 394.571 188.303C395.306 188.303 396.137 188.369 396.824 188.652C397.405 188.891 397.698 189.544 398.218 189.872C399.269 190.533 399.777 190.824 400.309 191.888" stroke="#FA4949" stroke-width="3" stroke-linecap="round"/>
<path d="M383 338.93C383.055 336.678 385.159 336.245 386.834 335.332C388.263 334.553 389.792 334.884 391.291 334.448C392.284 334.159 393.257 334 394.291 334C395.026 334 395.857 334.066 396.544 334.349C397.125 334.588 397.418 335.241 397.938 335.569C398.989 336.23 399.497 336.52 400.029 337.585" stroke="#FA4949" stroke-width="3" stroke-linecap="round"/>
<path d="M112 333.93C112.055 331.678 114.159 331.245 115.834 330.332C117.263 329.553 118.792 329.884 120.291 329.448C121.284 329.159 122.257 329 123.291 329C124.026 329 124.857 329.066 125.544 329.349C126.125 329.588 126.418 330.241 126.938 330.569C127.989 331.23 128.497 331.52 129.029 332.585" stroke="#FA4949" stroke-width="3" stroke-linecap="round"/>
</svg>
